G04 #@! TF.FileFunction,Paste,Top*
%FSLAX46Y46*%
G04 Gerber Fmt 4.6, Leading zero omitted, Abs format (unit mm)*
G04 Created by KiCad (PCBNEW 4.0.4-stable) date Monday, April 23, 2018 'PMt' 09:01:18 PM*
%MOMM*%
%LPD*%
G01*
G04 APERTURE LIST*
%ADD10C,0.100000*%
%ADD11R,0.300000X0.700000*%
%ADD12R,0.700000X0.300000*%
%ADD13R,2.500000X2.500000*%
%ADD14R,0.350000X0.850000*%
%ADD15R,0.850000X0.350000*%
%ADD16R,2.700000X2.700000*%
%ADD17R,0.450000X0.350000*%
%ADD18R,1.100000X0.850000*%
%ADD19R,1.100000X0.750000*%
%ADD20R,1.800000X1.170000*%
%ADD21R,1.350000X1.550000*%
%ADD22R,1.350000X1.900000*%
%ADD23R,1.000000X1.200000*%
%ADD24R,4.500000X4.600000*%
%ADD25R,0.350000X2.000000*%
%ADD26R,0.450000X0.300000*%
%ADD27R,1.700000X2.500000*%
%ADD28R,1.000000X0.250000*%
%ADD29R,0.500000X0.800000*%
%ADD30R,0.400000X0.800000*%
%ADD31R,0.400000X0.600000*%
%ADD32R,0.700000X1.300000*%
%ADD33R,1.300000X0.700000*%
%ADD34R,0.600000X0.400000*%
%ADD35R,1.000000X0.800000*%
%ADD36R,1.200000X0.300000*%
%ADD37R,2.400000X2.400000*%
%ADD38R,0.400000X1.650000*%
%ADD39R,1.430000X2.500000*%
%ADD40R,1.600000X5.700000*%
%ADD41R,1.000000X2.500000*%
%ADD42R,3.600000X1.500000*%
%ADD43R,1.500000X3.200000*%
%ADD44R,3.200000X1.500000*%
%ADD45R,1.778000X2.159000*%
%ADD46R,0.900000X1.200000*%
%ADD47R,1.000000X1.250000*%
%ADD48R,0.500000X0.600000*%
%ADD49R,1.250000X1.000000*%
%ADD50R,1.950000X2.500000*%
%ADD51R,0.800000X0.750000*%
%ADD52R,0.600000X0.500000*%
%ADD53R,1.000000X1.600000*%
%ADD54R,1.600000X1.000000*%
%ADD55R,0.750000X0.800000*%
%ADD56R,3.400000X1.600000*%
%ADD57R,3.500000X1.000000*%
%ADD58R,2.700000X0.700000*%
%ADD59R,2.800000X2.100000*%
%ADD60R,3.500000X2.000000*%
%ADD61R,1.250000X2.000000*%
G04 APERTURE END LIST*
D10*
D11*
X152328880Y-88083700D03*
X151828880Y-88083700D03*
X151328880Y-88083700D03*
X152828880Y-88083700D03*
X153328880Y-88083700D03*
D12*
X154293880Y-86118700D03*
X154293880Y-85618700D03*
X154293880Y-85118700D03*
X154293880Y-86618700D03*
X154293880Y-87118700D03*
X150363880Y-87118700D03*
X150363880Y-86618700D03*
X150363880Y-86118700D03*
X150363880Y-85618700D03*
X150363880Y-85118700D03*
D11*
X153328880Y-84153700D03*
X152828880Y-84153700D03*
X152328880Y-84153700D03*
X151828880Y-84153700D03*
X151328880Y-84153700D03*
D13*
X152328880Y-86118700D03*
D14*
X163520240Y-90488620D03*
X164170240Y-90488620D03*
X164820240Y-90488620D03*
X162870240Y-90488620D03*
X162870240Y-94438620D03*
X163520240Y-94438620D03*
X164170240Y-94438620D03*
X164820240Y-94438620D03*
D15*
X161870240Y-91488620D03*
X161870240Y-92138620D03*
X161870240Y-92788620D03*
X161870240Y-93438620D03*
X165820240Y-91488620D03*
X165820240Y-92138620D03*
X165820240Y-92788620D03*
X165820240Y-93438620D03*
D16*
X163845240Y-92463620D03*
D17*
X156048460Y-121473000D03*
X156048460Y-119573000D03*
X158398460Y-119573000D03*
X156048460Y-120523000D03*
X158398460Y-121473000D03*
D18*
X174188780Y-109063540D03*
X174188780Y-110163540D03*
X174188780Y-111263540D03*
X174188780Y-112363540D03*
X174188780Y-113463540D03*
X174188780Y-114563540D03*
X174188780Y-115663540D03*
D19*
X174188780Y-116713540D03*
D20*
X173838780Y-117923540D03*
D21*
X174063780Y-106603540D03*
D22*
X163363780Y-115898540D03*
X163363780Y-109928540D03*
D23*
X168038780Y-106428540D03*
X164338780Y-106428540D03*
D24*
X106300000Y-149160000D03*
X173100000Y-149160000D03*
D25*
X171350000Y-133060000D03*
X170750000Y-133060000D03*
X170150000Y-133060000D03*
X169550000Y-133060000D03*
X168950000Y-133060000D03*
X168350000Y-133060000D03*
X167750000Y-133060000D03*
X167150000Y-133060000D03*
X166550000Y-133060000D03*
X165950000Y-133060000D03*
X165350000Y-133060000D03*
X164750000Y-133060000D03*
X164150000Y-133060000D03*
X163550000Y-133060000D03*
X162950000Y-133060000D03*
X162350000Y-133060000D03*
X161750000Y-133060000D03*
X161150000Y-133060000D03*
X160550000Y-133060000D03*
X159950000Y-133060000D03*
X155750000Y-133060000D03*
X155150000Y-133060000D03*
X154550000Y-133060000D03*
X153950000Y-133060000D03*
X153350000Y-133060000D03*
X152750000Y-133060000D03*
X152150000Y-133060000D03*
X151550000Y-133060000D03*
X150950000Y-133060000D03*
X150350000Y-133060000D03*
X149750000Y-133060000D03*
X149150000Y-133060000D03*
X148550000Y-133060000D03*
X147950000Y-133060000D03*
X147350000Y-133060000D03*
X146750000Y-133060000D03*
X146150000Y-133060000D03*
X145550000Y-133060000D03*
X144950000Y-133060000D03*
X144350000Y-133060000D03*
X143750000Y-133060000D03*
X143150000Y-133060000D03*
X142550000Y-133060000D03*
X141950000Y-133060000D03*
X141350000Y-133060000D03*
X140750000Y-133060000D03*
X140150000Y-133060000D03*
X139550000Y-133060000D03*
X138950000Y-133060000D03*
X138350000Y-133060000D03*
X137750000Y-133060000D03*
X137150000Y-133060000D03*
X136550000Y-133060000D03*
X135950000Y-133060000D03*
X135350000Y-133060000D03*
X134750000Y-133060000D03*
X134150000Y-133060000D03*
X133550000Y-133060000D03*
X132950000Y-133060000D03*
X132350000Y-133060000D03*
X131750000Y-133060000D03*
X131150000Y-133060000D03*
X130550000Y-133060000D03*
X129950000Y-133060000D03*
X129350000Y-133060000D03*
X128750000Y-133060000D03*
X128150000Y-133060000D03*
X127550000Y-133060000D03*
X126950000Y-133060000D03*
X126350000Y-133060000D03*
X125750000Y-133060000D03*
X125150000Y-133060000D03*
X124550000Y-133060000D03*
X123950000Y-133060000D03*
X123350000Y-133060000D03*
X122750000Y-133060000D03*
X122150000Y-133060000D03*
X121550000Y-133060000D03*
X120950000Y-133060000D03*
X120350000Y-133060000D03*
X119750000Y-133060000D03*
X119150000Y-133060000D03*
X118550000Y-133060000D03*
X117950000Y-133060000D03*
X117350000Y-133060000D03*
X116750000Y-133060000D03*
X116150000Y-133060000D03*
X115550000Y-133060000D03*
X114950000Y-133060000D03*
X114350000Y-133060000D03*
X113750000Y-133060000D03*
X113150000Y-133060000D03*
X112550000Y-133060000D03*
X111950000Y-133060000D03*
X111350000Y-133060000D03*
X110750000Y-133060000D03*
X110150000Y-133060000D03*
X109550000Y-133060000D03*
X108950000Y-133060000D03*
X108350000Y-133060000D03*
X171050000Y-141260000D03*
X170450000Y-141260000D03*
X169850000Y-141260000D03*
X169250000Y-141260000D03*
X168650000Y-141260000D03*
X168050000Y-141260000D03*
X167450000Y-141260000D03*
X166850000Y-141260000D03*
X166250000Y-141260000D03*
X165650000Y-141260000D03*
X165050000Y-141260000D03*
X164450000Y-141260000D03*
X163850000Y-141260000D03*
X163250000Y-141260000D03*
X162650000Y-141260000D03*
X162050000Y-141260000D03*
X161450000Y-141260000D03*
X160850000Y-141260000D03*
X160250000Y-141260000D03*
X159650000Y-141260000D03*
X155450000Y-141260000D03*
X154850000Y-141260000D03*
X154250000Y-141260000D03*
X153650000Y-141260000D03*
X153050000Y-141260000D03*
X152450000Y-141260000D03*
X151850000Y-141260000D03*
X151250000Y-141260000D03*
X150650000Y-141260000D03*
X150050000Y-141260000D03*
X149450000Y-141260000D03*
X148850000Y-141260000D03*
X148250000Y-141260000D03*
X147650000Y-141260000D03*
X147050000Y-141260000D03*
X146450000Y-141260000D03*
X145850000Y-141260000D03*
X145250000Y-141260000D03*
X144650000Y-141260000D03*
X144050000Y-141260000D03*
X143450000Y-141260000D03*
X142850000Y-141260000D03*
X142250000Y-141260000D03*
X141650000Y-141260000D03*
X141050000Y-141260000D03*
X140450000Y-141260000D03*
X139850000Y-141260000D03*
X139250000Y-141260000D03*
X138650000Y-141260000D03*
X138050000Y-141260000D03*
X137450000Y-141260000D03*
X136850000Y-141260000D03*
X136250000Y-141260000D03*
X135650000Y-141260000D03*
X135050000Y-141260000D03*
X134450000Y-141260000D03*
X133850000Y-141260000D03*
X133250000Y-141260000D03*
X132650000Y-141260000D03*
X132050000Y-141260000D03*
X131450000Y-141260000D03*
X130850000Y-141260000D03*
X130250000Y-141260000D03*
X129650000Y-141260000D03*
X129050000Y-141260000D03*
X128450000Y-141260000D03*
X127850000Y-141260000D03*
X127250000Y-141260000D03*
X126650000Y-141260000D03*
X126050000Y-141260000D03*
X125450000Y-141260000D03*
X124850000Y-141260000D03*
X124250000Y-141260000D03*
X123650000Y-141260000D03*
X123050000Y-141260000D03*
X122450000Y-141260000D03*
X121850000Y-141260000D03*
X121250000Y-141260000D03*
X120650000Y-141260000D03*
X120050000Y-141260000D03*
X119450000Y-141260000D03*
X118850000Y-141260000D03*
X118250000Y-141260000D03*
X117650000Y-141260000D03*
X117050000Y-141260000D03*
X116450000Y-141260000D03*
X115850000Y-141260000D03*
X115250000Y-141260000D03*
X114650000Y-141260000D03*
X114050000Y-141260000D03*
X113450000Y-141260000D03*
X112850000Y-141260000D03*
X112250000Y-141260000D03*
X111650000Y-141260000D03*
X111050000Y-141260000D03*
X110450000Y-141260000D03*
X109850000Y-141260000D03*
X109250000Y-141260000D03*
X108650000Y-141260000D03*
X108050000Y-141260000D03*
D26*
X125126980Y-118247160D03*
X125126980Y-118897160D03*
X125126980Y-117597160D03*
X126901980Y-117597160D03*
X126901980Y-118897160D03*
D27*
X112829340Y-114541300D03*
D28*
X111129340Y-113416300D03*
X111129340Y-113866300D03*
X111129340Y-114316300D03*
X111129340Y-114766300D03*
X111129340Y-115216300D03*
X111129340Y-115666300D03*
X114529340Y-115666300D03*
X114529340Y-115216300D03*
X114529340Y-114766300D03*
X114529340Y-114316300D03*
X114529340Y-113866300D03*
X114529340Y-113416300D03*
D29*
X170887240Y-128479980D03*
D30*
X169287240Y-128479980D03*
X170087240Y-128479980D03*
D29*
X168487240Y-128479980D03*
D30*
X170087240Y-130279980D03*
D29*
X170887240Y-130279980D03*
D30*
X169287240Y-130279980D03*
D29*
X168487240Y-130279980D03*
X163455200Y-128479980D03*
D30*
X161855200Y-128479980D03*
X162655200Y-128479980D03*
D29*
X161055200Y-128479980D03*
D30*
X162655200Y-130279980D03*
D29*
X163455200Y-130279980D03*
D30*
X161855200Y-130279980D03*
D29*
X161055200Y-130279980D03*
X167172640Y-128479980D03*
D30*
X165572640Y-128479980D03*
X166372640Y-128479980D03*
D29*
X164772640Y-128479980D03*
D30*
X166372640Y-130279980D03*
D29*
X167172640Y-130279980D03*
D30*
X165572640Y-130279980D03*
D29*
X164772640Y-130279980D03*
X150950780Y-128479980D03*
D30*
X149350780Y-128479980D03*
X150150780Y-128479980D03*
D29*
X148550780Y-128479980D03*
D30*
X150150780Y-130279980D03*
D29*
X150950780Y-130279980D03*
D30*
X149350780Y-130279980D03*
D29*
X148550780Y-130279980D03*
X154572820Y-128479980D03*
D30*
X152972820Y-128479980D03*
X153772820Y-128479980D03*
D29*
X152172820Y-128479980D03*
D30*
X153772820Y-130279980D03*
D29*
X154572820Y-130279980D03*
D30*
X152972820Y-130279980D03*
D29*
X152172820Y-130279980D03*
X143711780Y-128479980D03*
D30*
X142111780Y-128479980D03*
X142911780Y-128479980D03*
D29*
X141311780Y-128479980D03*
D30*
X142911780Y-130279980D03*
D29*
X143711780Y-130279980D03*
D30*
X142111780Y-130279980D03*
D29*
X141311780Y-130279980D03*
X147331280Y-128479980D03*
D30*
X145731280Y-128479980D03*
X146531280Y-128479980D03*
D29*
X144931280Y-128479980D03*
D30*
X146531280Y-130279980D03*
D29*
X147331280Y-130279980D03*
D30*
X145731280Y-130279980D03*
D29*
X144931280Y-130279980D03*
D31*
X148338960Y-84579460D03*
X147438960Y-84579460D03*
D32*
X146966980Y-86118700D03*
X145066980Y-86118700D03*
X165285380Y-81711800D03*
X167185380Y-81711800D03*
D33*
X157449520Y-82415420D03*
X157449520Y-80515420D03*
X168648380Y-92278240D03*
X168648380Y-90378240D03*
X168656000Y-95338940D03*
X168656000Y-93438940D03*
D32*
X166723020Y-88422480D03*
X168623020Y-88422480D03*
X155150860Y-81706720D03*
X153250860Y-81706720D03*
X149923460Y-81694020D03*
X151823460Y-81694020D03*
X163527700Y-88419940D03*
X165427700Y-88419940D03*
D34*
X155816300Y-87446700D03*
X155816300Y-88346700D03*
D32*
X161571980Y-81582260D03*
X159671980Y-81582260D03*
D33*
X156009340Y-84729280D03*
X156009340Y-86629280D03*
X139176760Y-129331760D03*
X139176760Y-127431760D03*
X137002520Y-129331760D03*
X137002520Y-127431760D03*
X134792720Y-129331760D03*
X134792720Y-127431760D03*
X132580380Y-129331760D03*
X132580380Y-127431760D03*
X130335020Y-129331760D03*
X130335020Y-127431760D03*
X128125220Y-129296200D03*
X128125220Y-127396200D03*
X125844300Y-129260640D03*
X125844300Y-127360640D03*
X123563380Y-129260640D03*
X123563380Y-127360640D03*
X121246900Y-129260640D03*
X121246900Y-127360640D03*
X118894860Y-129260640D03*
X118894860Y-127360640D03*
X116613940Y-129260640D03*
X116613940Y-127360640D03*
X114333020Y-129260640D03*
X114333020Y-127360640D03*
D32*
X150459480Y-107904280D03*
X148559480Y-107904280D03*
D33*
X156049980Y-124833420D03*
X156049980Y-122933420D03*
D32*
X159194460Y-121472960D03*
X161094460Y-121472960D03*
D34*
X141676120Y-145025960D03*
X141676120Y-145925960D03*
X143461740Y-145165660D03*
X143461740Y-146065660D03*
X142872460Y-147317040D03*
X142872460Y-148217040D03*
X163250880Y-145071680D03*
X163250880Y-145971680D03*
X162651440Y-147278940D03*
X162651440Y-148178940D03*
X116674900Y-113415660D03*
X116674900Y-114315660D03*
D31*
X115395160Y-112171480D03*
X114495160Y-112171480D03*
D34*
X109146340Y-115666940D03*
X109146340Y-114766940D03*
D35*
X167685720Y-85336460D03*
X167685720Y-83436460D03*
X165285720Y-84386460D03*
D36*
X146134080Y-119900840D03*
X146134080Y-119400840D03*
X146134080Y-120400840D03*
X146134080Y-120900840D03*
X146134080Y-122900840D03*
X146134080Y-122400840D03*
X146134080Y-121400840D03*
X146134080Y-121900840D03*
X146134080Y-111900840D03*
X146134080Y-111400840D03*
X146134080Y-112400840D03*
X146134080Y-112900840D03*
X146134080Y-114900840D03*
X146134080Y-114400840D03*
X146134080Y-113400840D03*
X146134080Y-113900840D03*
X146134080Y-117900840D03*
X146134080Y-117400840D03*
X146134080Y-118400840D03*
X146134080Y-118900840D03*
X146134080Y-116900840D03*
X146134080Y-116400840D03*
X146134080Y-115400840D03*
X146134080Y-115900840D03*
X146134080Y-107900840D03*
X146134080Y-107400840D03*
X146134080Y-108400840D03*
X146134080Y-108900840D03*
X146134080Y-110900840D03*
X146134080Y-110400840D03*
X146134080Y-109400840D03*
X146134080Y-109900840D03*
X146134080Y-105900840D03*
X146134080Y-105400840D03*
X146134080Y-106400840D03*
X146134080Y-106900840D03*
X146134080Y-104900840D03*
X146134080Y-104400840D03*
X146134080Y-103400840D03*
X146134080Y-103900840D03*
D37*
X143434080Y-125000840D03*
X143434080Y-101300840D03*
D38*
X144750000Y-162076000D03*
X145400000Y-162076000D03*
X146050000Y-162076000D03*
X146700000Y-162076000D03*
X147350000Y-162076000D03*
D39*
X145090000Y-165196000D03*
X147010000Y-165196000D03*
D40*
X154291800Y-92786200D03*
X158991800Y-92786200D03*
D41*
X159046040Y-117058440D03*
X156046040Y-117058440D03*
D42*
X108016040Y-113251980D03*
X108016040Y-110201980D03*
X117495320Y-115845860D03*
X117495320Y-118895860D03*
D43*
X121910000Y-112180000D03*
X126110000Y-112180000D03*
D44*
X143492220Y-152108480D03*
X143492220Y-156308480D03*
D45*
X149552660Y-122400060D03*
X153616660Y-122400060D03*
D46*
X149546040Y-119344440D03*
X152846040Y-119344440D03*
D47*
X148850860Y-87886540D03*
X146850860Y-87886540D03*
D48*
X162821620Y-97219680D03*
X162821620Y-98319680D03*
D49*
X164825680Y-96807780D03*
X164825680Y-98807780D03*
D50*
X161547540Y-87561420D03*
X158497540Y-87561420D03*
D51*
X161563620Y-83527900D03*
X163063620Y-83527900D03*
D48*
X157718760Y-123348660D03*
X157718760Y-124448660D03*
D47*
X159342580Y-119575580D03*
X161342580Y-119575580D03*
D52*
X150641140Y-115785900D03*
X149541140Y-115785900D03*
X150641140Y-117040660D03*
X149541140Y-117040660D03*
D51*
X170336780Y-103883460D03*
X171836780Y-103883460D03*
D53*
X129690000Y-83450000D03*
X132690000Y-83450000D03*
X129720000Y-80730000D03*
X132720000Y-80730000D03*
D54*
X111803180Y-129597280D03*
X111803180Y-126597280D03*
X108783120Y-129597280D03*
X108783120Y-126597280D03*
D48*
X159669480Y-145837820D03*
X159669480Y-146937820D03*
D54*
X105801160Y-129597280D03*
X105801160Y-126597280D03*
D48*
X155455620Y-145842900D03*
X155455620Y-146942900D03*
D52*
X128609000Y-118892320D03*
X129709000Y-118892320D03*
X123679040Y-117594380D03*
X122579040Y-117594380D03*
D51*
X128208340Y-117596920D03*
X129708340Y-117596920D03*
D47*
X111128300Y-112036860D03*
X113128300Y-112036860D03*
X114517680Y-117109240D03*
X112517680Y-117109240D03*
D52*
X114517080Y-110909100D03*
X115617080Y-110909100D03*
D47*
X111130840Y-110142020D03*
X113130840Y-110142020D03*
X114517680Y-118999000D03*
X112517680Y-118999000D03*
D55*
X169857420Y-152074180D03*
X169857420Y-153574180D03*
D54*
X147027900Y-152105360D03*
X147027900Y-155105360D03*
D56*
X154705000Y-105858520D03*
D57*
X160255000Y-103458520D03*
X160255000Y-101458520D03*
D56*
X154705000Y-99058520D03*
D58*
X142166680Y-88910000D03*
X142166680Y-89910000D03*
X142166680Y-87910000D03*
X142166680Y-86910000D03*
X142166680Y-90910000D03*
X142166680Y-91910000D03*
D59*
X139816680Y-95060000D03*
X139816680Y-83760000D03*
D60*
X128835000Y-75930000D03*
X113585000Y-75930000D03*
X128835000Y-69830000D03*
X113585000Y-69830000D03*
D61*
X124710000Y-77930000D03*
X117710000Y-77930000D03*
X122210000Y-77930000D03*
X120210000Y-77930000D03*
M02*
