G04 #@! TF.FileFunction,Legend,Top*
%FSLAX46Y46*%
G04 Gerber Fmt 4.6, Leading zero omitted, Abs format (unit mm)*
G04 Created by KiCad (PCBNEW 4.0.4-stable) date Monday, April 23, 2018 'PMt' 09:01:18 PM*
%MOMM*%
%LPD*%
G01*
G04 APERTURE LIST*
%ADD10C,0.100000*%
%ADD11C,0.200000*%
%ADD12C,0.150000*%
%ADD13C,0.120000*%
G04 APERTURE END LIST*
D10*
D11*
X103759000Y-102870000D02*
X140000000Y-102870000D01*
X103759000Y-123444000D02*
X140000000Y-123444000D01*
D12*
X154611723Y-88118700D02*
G75*
G03X154611723Y-88118700I-282843J0D01*
G01*
X162128083Y-90463620D02*
G75*
G03X162128083Y-90463620I-282843J0D01*
G01*
X103700000Y-131160000D02*
X103700000Y-141260000D01*
X103700000Y-151160000D02*
X103700000Y-140852236D01*
X175700000Y-141260000D02*
X175700000Y-131160000D01*
X175700000Y-151160000D02*
X175700000Y-140860000D01*
X171350000Y-131010000D02*
X170750000Y-130510000D01*
X170750000Y-130510000D02*
X171950000Y-130510000D01*
X171950000Y-130510000D02*
X171350000Y-131010000D01*
X158150000Y-141660000D02*
X158150000Y-140060000D01*
X157250000Y-141660000D02*
X157250000Y-140060000D01*
X157250000Y-142510000D02*
X157250000Y-143760000D01*
X158150000Y-142510000D02*
X158150000Y-143760000D01*
X177200000Y-157160000D02*
X177200000Y-154160000D01*
X177200000Y-154160000D02*
X175700000Y-151160000D01*
X175700000Y-131160000D02*
X103700000Y-131160000D01*
X103700000Y-151160000D02*
X102200000Y-154160000D01*
X102200000Y-154160000D02*
X102200000Y-157160000D01*
X102200000Y-157160000D02*
X106700000Y-157160000D01*
X106700000Y-157160000D02*
X106700000Y-152159001D01*
X106700000Y-143160000D02*
X139700000Y-143160000D01*
X139700000Y-143160000D02*
X172700000Y-143160000D01*
X172700000Y-152160000D02*
X172700000Y-157160000D01*
X172700000Y-157160000D02*
X177200000Y-157160000D01*
X112029340Y-112841300D02*
G75*
G03X112029340Y-112841300I-200000J0D01*
G01*
D13*
X168007240Y-129879980D02*
X168007240Y-128879980D01*
X171367240Y-129879980D02*
X171367240Y-128879980D01*
X160575200Y-129879980D02*
X160575200Y-128879980D01*
X163935200Y-129879980D02*
X163935200Y-128879980D01*
X164292640Y-129879980D02*
X164292640Y-128879980D01*
X167652640Y-129879980D02*
X167652640Y-128879980D01*
X148070780Y-129879980D02*
X148070780Y-128879980D01*
X151430780Y-129879980D02*
X151430780Y-128879980D01*
X151692820Y-129879980D02*
X151692820Y-128879980D01*
X155052820Y-129879980D02*
X155052820Y-128879980D01*
X140831780Y-129879980D02*
X140831780Y-128879980D01*
X144191780Y-129879980D02*
X144191780Y-128879980D01*
X144451280Y-129879980D02*
X144451280Y-128879980D01*
X147811280Y-129879980D02*
X147811280Y-128879980D01*
X147638960Y-85109460D02*
X148138960Y-85109460D01*
X148138960Y-84049460D02*
X147638960Y-84049460D01*
X145416980Y-85238700D02*
X146616980Y-85238700D01*
X146616980Y-86998700D02*
X145416980Y-86998700D01*
X166835380Y-82591800D02*
X165635380Y-82591800D01*
X165635380Y-80831800D02*
X166835380Y-80831800D01*
X158329520Y-80865420D02*
X158329520Y-82065420D01*
X156569520Y-82065420D02*
X156569520Y-80865420D01*
X169528380Y-90728240D02*
X169528380Y-91928240D01*
X167768380Y-91928240D02*
X167768380Y-90728240D01*
X169536000Y-93788940D02*
X169536000Y-94988940D01*
X167776000Y-94988940D02*
X167776000Y-93788940D01*
X168273020Y-89302480D02*
X167073020Y-89302480D01*
X167073020Y-87542480D02*
X168273020Y-87542480D01*
X153600860Y-80826720D02*
X154800860Y-80826720D01*
X154800860Y-82586720D02*
X153600860Y-82586720D01*
X151473460Y-82574020D02*
X150273460Y-82574020D01*
X150273460Y-80814020D02*
X151473460Y-80814020D01*
X165077700Y-89299940D02*
X163877700Y-89299940D01*
X163877700Y-87539940D02*
X165077700Y-87539940D01*
X156346300Y-88146700D02*
X156346300Y-87646700D01*
X155286300Y-87646700D02*
X155286300Y-88146700D01*
X160021980Y-80702260D02*
X161221980Y-80702260D01*
X161221980Y-82462260D02*
X160021980Y-82462260D01*
X155129340Y-86279280D02*
X155129340Y-85079280D01*
X156889340Y-85079280D02*
X156889340Y-86279280D01*
X140056760Y-127781760D02*
X140056760Y-128981760D01*
X138296760Y-128981760D02*
X138296760Y-127781760D01*
X137882520Y-127781760D02*
X137882520Y-128981760D01*
X136122520Y-128981760D02*
X136122520Y-127781760D01*
X135672720Y-127781760D02*
X135672720Y-128981760D01*
X133912720Y-128981760D02*
X133912720Y-127781760D01*
X133460380Y-127781760D02*
X133460380Y-128981760D01*
X131700380Y-128981760D02*
X131700380Y-127781760D01*
X131215020Y-127781760D02*
X131215020Y-128981760D01*
X129455020Y-128981760D02*
X129455020Y-127781760D01*
X129005220Y-127746200D02*
X129005220Y-128946200D01*
X127245220Y-128946200D02*
X127245220Y-127746200D01*
X126724300Y-127710640D02*
X126724300Y-128910640D01*
X124964300Y-128910640D02*
X124964300Y-127710640D01*
X124443380Y-127710640D02*
X124443380Y-128910640D01*
X122683380Y-128910640D02*
X122683380Y-127710640D01*
X122126900Y-127710640D02*
X122126900Y-128910640D01*
X120366900Y-128910640D02*
X120366900Y-127710640D01*
X119774860Y-127710640D02*
X119774860Y-128910640D01*
X118014860Y-128910640D02*
X118014860Y-127710640D01*
X117493940Y-127710640D02*
X117493940Y-128910640D01*
X115733940Y-128910640D02*
X115733940Y-127710640D01*
X115213020Y-127710640D02*
X115213020Y-128910640D01*
X113453020Y-128910640D02*
X113453020Y-127710640D01*
X148909480Y-107024280D02*
X150109480Y-107024280D01*
X150109480Y-108784280D02*
X148909480Y-108784280D01*
X156929980Y-123283420D02*
X156929980Y-124483420D01*
X155169980Y-124483420D02*
X155169980Y-123283420D01*
X160744460Y-122352960D02*
X159544460Y-122352960D01*
X159544460Y-120592960D02*
X160744460Y-120592960D01*
X142206120Y-145725960D02*
X142206120Y-145225960D01*
X141146120Y-145225960D02*
X141146120Y-145725960D01*
X143991740Y-145865660D02*
X143991740Y-145365660D01*
X142931740Y-145365660D02*
X142931740Y-145865660D01*
X143402460Y-148017040D02*
X143402460Y-147517040D01*
X142342460Y-147517040D02*
X142342460Y-148017040D01*
X163780880Y-145771680D02*
X163780880Y-145271680D01*
X162720880Y-145271680D02*
X162720880Y-145771680D01*
X163181440Y-147978940D02*
X163181440Y-147478940D01*
X162121440Y-147478940D02*
X162121440Y-147978940D01*
X117204900Y-114115660D02*
X117204900Y-113615660D01*
X116144900Y-113615660D02*
X116144900Y-114115660D01*
X114695160Y-112701480D02*
X115195160Y-112701480D01*
X115195160Y-111641480D02*
X114695160Y-111641480D01*
X108616340Y-114966940D02*
X108616340Y-115466940D01*
X109676340Y-115466940D02*
X109676340Y-114966940D01*
D12*
X141134080Y-122900840D02*
X141134080Y-103400840D01*
D13*
X142050000Y-167776000D02*
X150050000Y-167776000D01*
X142050000Y-160456000D02*
X150050000Y-160456000D01*
X150050000Y-160456000D02*
X150050000Y-167776000D01*
X150050000Y-167156000D02*
X142050000Y-167156000D01*
X142050000Y-167776000D02*
X142050000Y-160456000D01*
X156546040Y-118538440D02*
X158546040Y-118538440D01*
X158546040Y-115578440D02*
X156546040Y-115578440D01*
D12*
X147784660Y-124100060D02*
X151584660Y-124100060D01*
X147784660Y-120700060D02*
X147784660Y-124100060D01*
X151584660Y-120700060D02*
X147784660Y-120700060D01*
D13*
X148946040Y-118344440D02*
X148946040Y-120344440D01*
X148946040Y-120344440D02*
X152846040Y-120344440D01*
X148946040Y-118344440D02*
X152846040Y-118344440D01*
X147350860Y-88736540D02*
X148350860Y-88736540D01*
X148350860Y-87036540D02*
X147350860Y-87036540D01*
X163291620Y-98019680D02*
X163291620Y-97519680D01*
X162351620Y-97519680D02*
X162351620Y-98019680D01*
X165675680Y-98307780D02*
X165675680Y-97307780D01*
X163975680Y-97307780D02*
X163975680Y-98307780D01*
X162822540Y-89211420D02*
X158272540Y-89211420D01*
X162822540Y-85911420D02*
X158272540Y-85911420D01*
X162822540Y-89211420D02*
X162822540Y-85911420D01*
X161963620Y-82927900D02*
X162663620Y-82927900D01*
X162663620Y-84127900D02*
X161963620Y-84127900D01*
X158188760Y-124148660D02*
X158188760Y-123648660D01*
X157248760Y-123648660D02*
X157248760Y-124148660D01*
X160842580Y-118725580D02*
X159842580Y-118725580D01*
X159842580Y-120425580D02*
X160842580Y-120425580D01*
X149841140Y-116255900D02*
X150341140Y-116255900D01*
X150341140Y-115315900D02*
X149841140Y-115315900D01*
X149841140Y-117510660D02*
X150341140Y-117510660D01*
X150341140Y-116570660D02*
X149841140Y-116570660D01*
X170736780Y-103283460D02*
X171436780Y-103283460D01*
X171436780Y-104483460D02*
X170736780Y-104483460D01*
X132190000Y-82430000D02*
X130190000Y-82430000D01*
X130190000Y-84470000D02*
X132190000Y-84470000D01*
X132220000Y-79710000D02*
X130220000Y-79710000D01*
X130220000Y-81750000D02*
X132220000Y-81750000D01*
X110783180Y-127097280D02*
X110783180Y-129097280D01*
X112823180Y-129097280D02*
X112823180Y-127097280D01*
X107763120Y-127097280D02*
X107763120Y-129097280D01*
X109803120Y-129097280D02*
X109803120Y-127097280D01*
X160139480Y-146637820D02*
X160139480Y-146137820D01*
X159199480Y-146137820D02*
X159199480Y-146637820D01*
X104781160Y-127097280D02*
X104781160Y-129097280D01*
X106821160Y-129097280D02*
X106821160Y-127097280D01*
X155925620Y-146642900D02*
X155925620Y-146142900D01*
X154985620Y-146142900D02*
X154985620Y-146642900D01*
X129409000Y-118422320D02*
X128909000Y-118422320D01*
X128909000Y-119362320D02*
X129409000Y-119362320D01*
X122879040Y-118064380D02*
X123379040Y-118064380D01*
X123379040Y-117124380D02*
X122879040Y-117124380D01*
X128608340Y-116996920D02*
X129308340Y-116996920D01*
X129308340Y-118196920D02*
X128608340Y-118196920D01*
X112628300Y-111186860D02*
X111628300Y-111186860D01*
X111628300Y-112886860D02*
X112628300Y-112886860D01*
X113017680Y-117959240D02*
X114017680Y-117959240D01*
X114017680Y-116259240D02*
X113017680Y-116259240D01*
X115317080Y-110439100D02*
X114817080Y-110439100D01*
X114817080Y-111379100D02*
X115317080Y-111379100D01*
X112630840Y-109292020D02*
X111630840Y-109292020D01*
X111630840Y-110992020D02*
X112630840Y-110992020D01*
X113017680Y-119849000D02*
X114017680Y-119849000D01*
X114017680Y-118149000D02*
X113017680Y-118149000D01*
X170457420Y-152474180D02*
X170457420Y-153174180D01*
X169257420Y-153174180D02*
X169257420Y-152474180D01*
X148047900Y-154605360D02*
X148047900Y-152605360D01*
X146007900Y-152605360D02*
X146007900Y-154605360D01*
D12*
X136516680Y-85110000D02*
X136516680Y-93710000D01*
X170747441Y-96050005D02*
X171556965Y-96050005D01*
X171652203Y-96002386D01*
X171699822Y-95954767D01*
X171747441Y-95859529D01*
X171747441Y-95669052D01*
X171699822Y-95573814D01*
X171652203Y-95526195D01*
X171556965Y-95478576D01*
X170747441Y-95478576D01*
X171176012Y-94859529D02*
X171128393Y-94954767D01*
X171080774Y-95002386D01*
X170985536Y-95050005D01*
X170937917Y-95050005D01*
X170842679Y-95002386D01*
X170795060Y-94954767D01*
X170747441Y-94859529D01*
X170747441Y-94669052D01*
X170795060Y-94573814D01*
X170842679Y-94526195D01*
X170937917Y-94478576D01*
X170985536Y-94478576D01*
X171080774Y-94526195D01*
X171128393Y-94573814D01*
X171176012Y-94669052D01*
X171176012Y-94859529D01*
X171223631Y-94954767D01*
X171271250Y-95002386D01*
X171366489Y-95050005D01*
X171556965Y-95050005D01*
X171652203Y-95002386D01*
X171699822Y-94954767D01*
X171747441Y-94859529D01*
X171747441Y-94669052D01*
X171699822Y-94573814D01*
X171652203Y-94526195D01*
X171556965Y-94478576D01*
X171366489Y-94478576D01*
X171271250Y-94526195D01*
X171223631Y-94573814D01*
X171176012Y-94669052D01*
X149039675Y-83211421D02*
X149039675Y-84020945D01*
X149087294Y-84116183D01*
X149134913Y-84163802D01*
X149230151Y-84211421D01*
X149420628Y-84211421D01*
X149515866Y-84163802D01*
X149563485Y-84116183D01*
X149611104Y-84020945D01*
X149611104Y-83211421D01*
X149992056Y-83211421D02*
X150658723Y-83211421D01*
X150230151Y-84211421D01*
X160611915Y-94402661D02*
X160611915Y-95212185D01*
X160659534Y-95307423D01*
X160707153Y-95355042D01*
X160802391Y-95402661D01*
X160992868Y-95402661D01*
X161088106Y-95355042D01*
X161135725Y-95307423D01*
X161183344Y-95212185D01*
X161183344Y-94402661D01*
X162088106Y-94402661D02*
X161897629Y-94402661D01*
X161802391Y-94450280D01*
X161754772Y-94497899D01*
X161659534Y-94640756D01*
X161611915Y-94831232D01*
X161611915Y-95212185D01*
X161659534Y-95307423D01*
X161707153Y-95355042D01*
X161802391Y-95402661D01*
X161992868Y-95402661D01*
X162088106Y-95355042D01*
X162135725Y-95307423D01*
X162183344Y-95212185D01*
X162183344Y-94974090D01*
X162135725Y-94878851D01*
X162088106Y-94831232D01*
X161992868Y-94783613D01*
X161802391Y-94783613D01*
X161707153Y-94831232D01*
X161659534Y-94878851D01*
X161611915Y-94974090D01*
X153692955Y-119967761D02*
X153692955Y-120777285D01*
X153740574Y-120872523D01*
X153788193Y-120920142D01*
X153883431Y-120967761D01*
X154073908Y-120967761D01*
X154169146Y-120920142D01*
X154216765Y-120872523D01*
X154264384Y-120777285D01*
X154264384Y-119967761D01*
X155216765Y-119967761D02*
X154740574Y-119967761D01*
X154692955Y-120443951D01*
X154740574Y-120396332D01*
X154835812Y-120348713D01*
X155073908Y-120348713D01*
X155169146Y-120396332D01*
X155216765Y-120443951D01*
X155264384Y-120539190D01*
X155264384Y-120777285D01*
X155216765Y-120872523D01*
X155169146Y-120920142D01*
X155073908Y-120967761D01*
X154835812Y-120967761D01*
X154740574Y-120920142D01*
X154692955Y-120872523D01*
X162931861Y-119412925D02*
X163741385Y-119412925D01*
X163836623Y-119365306D01*
X163884242Y-119317687D01*
X163931861Y-119222449D01*
X163931861Y-119031972D01*
X163884242Y-118936734D01*
X163836623Y-118889115D01*
X163741385Y-118841496D01*
X162931861Y-118841496D01*
X163265194Y-117936734D02*
X163931861Y-117936734D01*
X162884242Y-118174830D02*
X163598528Y-118412925D01*
X163598528Y-117793877D01*
X167538095Y-143652381D02*
X167538095Y-144461905D01*
X167585714Y-144557143D01*
X167633333Y-144604762D01*
X167728571Y-144652381D01*
X167919048Y-144652381D01*
X168014286Y-144604762D01*
X168061905Y-144557143D01*
X168109524Y-144461905D01*
X168109524Y-143652381D01*
X168490476Y-143652381D02*
X169109524Y-143652381D01*
X168776190Y-144033333D01*
X168919048Y-144033333D01*
X169014286Y-144080952D01*
X169061905Y-144128571D01*
X169109524Y-144223810D01*
X169109524Y-144461905D01*
X169061905Y-144557143D01*
X169014286Y-144604762D01*
X168919048Y-144652381D01*
X168633333Y-144652381D01*
X168538095Y-144604762D01*
X168490476Y-144557143D01*
X170094115Y-144640561D02*
X170094115Y-143640561D01*
X170332210Y-143640561D01*
X170475068Y-143688180D01*
X170570306Y-143783418D01*
X170617925Y-143878656D01*
X170665544Y-144069132D01*
X170665544Y-144211990D01*
X170617925Y-144402466D01*
X170570306Y-144497704D01*
X170475068Y-144592942D01*
X170332210Y-144640561D01*
X170094115Y-144640561D01*
X171094115Y-144640561D02*
X171094115Y-143640561D01*
X171332210Y-143640561D01*
X171475068Y-143688180D01*
X171570306Y-143783418D01*
X171617925Y-143878656D01*
X171665544Y-144069132D01*
X171665544Y-144211990D01*
X171617925Y-144402466D01*
X171570306Y-144497704D01*
X171475068Y-144592942D01*
X171332210Y-144640561D01*
X171094115Y-144640561D01*
X172665544Y-144640561D02*
X172332210Y-144164370D01*
X172094115Y-144640561D02*
X172094115Y-143640561D01*
X172475068Y-143640561D01*
X172570306Y-143688180D01*
X172617925Y-143735799D01*
X172665544Y-143831037D01*
X172665544Y-143973894D01*
X172617925Y-144069132D01*
X172570306Y-144116751D01*
X172475068Y-144164370D01*
X172094115Y-144164370D01*
X158535715Y-145262381D02*
X157964286Y-145262381D01*
X158250000Y-145262381D02*
X158250000Y-144262381D01*
X158154762Y-144405238D01*
X158059524Y-144500476D01*
X157964286Y-144548095D01*
X156964286Y-144357619D02*
X157011905Y-144310000D01*
X157107143Y-144262381D01*
X157345239Y-144262381D01*
X157440477Y-144310000D01*
X157488096Y-144357619D01*
X157535715Y-144452857D01*
X157535715Y-144548095D01*
X157488096Y-144690952D01*
X156916667Y-145262381D01*
X157535715Y-145262381D01*
X125252575Y-119999541D02*
X125252575Y-120809065D01*
X125300194Y-120904303D01*
X125347813Y-120951922D01*
X125443051Y-120999541D01*
X125633528Y-120999541D01*
X125728766Y-120951922D01*
X125776385Y-120904303D01*
X125824004Y-120809065D01*
X125824004Y-119999541D01*
X126252575Y-120094779D02*
X126300194Y-120047160D01*
X126395432Y-119999541D01*
X126633528Y-119999541D01*
X126728766Y-120047160D01*
X126776385Y-120094779D01*
X126824004Y-120190017D01*
X126824004Y-120285255D01*
X126776385Y-120428112D01*
X126204956Y-120999541D01*
X126824004Y-120999541D01*
X109921135Y-116320321D02*
X109921135Y-117129845D01*
X109968754Y-117225083D01*
X110016373Y-117272702D01*
X110111611Y-117320321D01*
X110302088Y-117320321D01*
X110397326Y-117272702D01*
X110444945Y-117225083D01*
X110492564Y-117129845D01*
X110492564Y-116320321D01*
X111492564Y-117320321D02*
X110921135Y-117320321D01*
X111206849Y-117320321D02*
X111206849Y-116320321D01*
X111111611Y-116463178D01*
X111016373Y-116558416D01*
X110921135Y-116606035D01*
X146346943Y-83705961D02*
X146013609Y-83229770D01*
X145775514Y-83705961D02*
X145775514Y-82705961D01*
X146156467Y-82705961D01*
X146251705Y-82753580D01*
X146299324Y-82801199D01*
X146346943Y-82896437D01*
X146346943Y-83039294D01*
X146299324Y-83134532D01*
X146251705Y-83182151D01*
X146156467Y-83229770D01*
X145775514Y-83229770D01*
X146680276Y-82705961D02*
X147299324Y-82705961D01*
X146965990Y-83086913D01*
X147108848Y-83086913D01*
X147204086Y-83134532D01*
X147251705Y-83182151D01*
X147299324Y-83277390D01*
X147299324Y-83515485D01*
X147251705Y-83610723D01*
X147204086Y-83658342D01*
X147108848Y-83705961D01*
X146823133Y-83705961D01*
X146727895Y-83658342D01*
X146680276Y-83610723D01*
X148156467Y-82705961D02*
X147965990Y-82705961D01*
X147870752Y-82753580D01*
X147823133Y-82801199D01*
X147727895Y-82944056D01*
X147680276Y-83134532D01*
X147680276Y-83515485D01*
X147727895Y-83610723D01*
X147775514Y-83658342D01*
X147870752Y-83705961D01*
X148061229Y-83705961D01*
X148156467Y-83658342D01*
X148204086Y-83610723D01*
X148251705Y-83515485D01*
X148251705Y-83277390D01*
X148204086Y-83182151D01*
X148156467Y-83134532D01*
X148061229Y-83086913D01*
X147870752Y-83086913D01*
X147775514Y-83134532D01*
X147727895Y-83182151D01*
X147680276Y-83277390D01*
X143169403Y-85108041D02*
X142836069Y-84631850D01*
X142597974Y-85108041D02*
X142597974Y-84108041D01*
X142978927Y-84108041D01*
X143074165Y-84155660D01*
X143121784Y-84203279D01*
X143169403Y-84298517D01*
X143169403Y-84441374D01*
X143121784Y-84536612D01*
X143074165Y-84584231D01*
X142978927Y-84631850D01*
X142597974Y-84631850D01*
X143502736Y-84108041D02*
X144121784Y-84108041D01*
X143788450Y-84488993D01*
X143931308Y-84488993D01*
X144026546Y-84536612D01*
X144074165Y-84584231D01*
X144121784Y-84679470D01*
X144121784Y-84917565D01*
X144074165Y-85012803D01*
X144026546Y-85060422D01*
X143931308Y-85108041D01*
X143645593Y-85108041D01*
X143550355Y-85060422D01*
X143502736Y-85012803D01*
X145026546Y-84108041D02*
X144550355Y-84108041D01*
X144502736Y-84584231D01*
X144550355Y-84536612D01*
X144645593Y-84488993D01*
X144883689Y-84488993D01*
X144978927Y-84536612D01*
X145026546Y-84584231D01*
X145074165Y-84679470D01*
X145074165Y-84917565D01*
X145026546Y-85012803D01*
X144978927Y-85060422D01*
X144883689Y-85108041D01*
X144645593Y-85108041D01*
X144550355Y-85060422D01*
X144502736Y-85012803D01*
X165592523Y-80514181D02*
X165259189Y-80037990D01*
X165021094Y-80514181D02*
X165021094Y-79514181D01*
X165402047Y-79514181D01*
X165497285Y-79561800D01*
X165544904Y-79609419D01*
X165592523Y-79704657D01*
X165592523Y-79847514D01*
X165544904Y-79942752D01*
X165497285Y-79990371D01*
X165402047Y-80037990D01*
X165021094Y-80037990D01*
X165925856Y-79514181D02*
X166544904Y-79514181D01*
X166211570Y-79895133D01*
X166354428Y-79895133D01*
X166449666Y-79942752D01*
X166497285Y-79990371D01*
X166544904Y-80085610D01*
X166544904Y-80323705D01*
X166497285Y-80418943D01*
X166449666Y-80466562D01*
X166354428Y-80514181D01*
X166068713Y-80514181D01*
X165973475Y-80466562D01*
X165925856Y-80418943D01*
X167402047Y-79847514D02*
X167402047Y-80514181D01*
X167163951Y-79466562D02*
X166925856Y-80180848D01*
X167544904Y-80180848D01*
X156806663Y-79928981D02*
X156473329Y-79452790D01*
X156235234Y-79928981D02*
X156235234Y-78928981D01*
X156616187Y-78928981D01*
X156711425Y-78976600D01*
X156759044Y-79024219D01*
X156806663Y-79119457D01*
X156806663Y-79262314D01*
X156759044Y-79357552D01*
X156711425Y-79405171D01*
X156616187Y-79452790D01*
X156235234Y-79452790D01*
X157139996Y-78928981D02*
X157759044Y-78928981D01*
X157425710Y-79309933D01*
X157568568Y-79309933D01*
X157663806Y-79357552D01*
X157711425Y-79405171D01*
X157759044Y-79500410D01*
X157759044Y-79738505D01*
X157711425Y-79833743D01*
X157663806Y-79881362D01*
X157568568Y-79928981D01*
X157282853Y-79928981D01*
X157187615Y-79881362D01*
X157139996Y-79833743D01*
X158092377Y-78928981D02*
X158711425Y-78928981D01*
X158378091Y-79309933D01*
X158520949Y-79309933D01*
X158616187Y-79357552D01*
X158663806Y-79405171D01*
X158711425Y-79500410D01*
X158711425Y-79738505D01*
X158663806Y-79833743D01*
X158616187Y-79881362D01*
X158520949Y-79928981D01*
X158235234Y-79928981D01*
X158139996Y-79881362D01*
X158092377Y-79833743D01*
X168020763Y-96959681D02*
X167687429Y-96483490D01*
X167449334Y-96959681D02*
X167449334Y-95959681D01*
X167830287Y-95959681D01*
X167925525Y-96007300D01*
X167973144Y-96054919D01*
X168020763Y-96150157D01*
X168020763Y-96293014D01*
X167973144Y-96388252D01*
X167925525Y-96435871D01*
X167830287Y-96483490D01*
X167449334Y-96483490D01*
X168354096Y-95959681D02*
X168973144Y-95959681D01*
X168639810Y-96340633D01*
X168782668Y-96340633D01*
X168877906Y-96388252D01*
X168925525Y-96435871D01*
X168973144Y-96531110D01*
X168973144Y-96769205D01*
X168925525Y-96864443D01*
X168877906Y-96912062D01*
X168782668Y-96959681D01*
X168496953Y-96959681D01*
X168401715Y-96912062D01*
X168354096Y-96864443D01*
X169354096Y-96054919D02*
X169401715Y-96007300D01*
X169496953Y-95959681D01*
X169735049Y-95959681D01*
X169830287Y-96007300D01*
X169877906Y-96054919D01*
X169925525Y-96150157D01*
X169925525Y-96245395D01*
X169877906Y-96388252D01*
X169306477Y-96959681D01*
X169925525Y-96959681D01*
X168015683Y-98369381D02*
X167682349Y-97893190D01*
X167444254Y-98369381D02*
X167444254Y-97369381D01*
X167825207Y-97369381D01*
X167920445Y-97417000D01*
X167968064Y-97464619D01*
X168015683Y-97559857D01*
X168015683Y-97702714D01*
X167968064Y-97797952D01*
X167920445Y-97845571D01*
X167825207Y-97893190D01*
X167444254Y-97893190D01*
X168349016Y-97369381D02*
X168968064Y-97369381D01*
X168634730Y-97750333D01*
X168777588Y-97750333D01*
X168872826Y-97797952D01*
X168920445Y-97845571D01*
X168968064Y-97940810D01*
X168968064Y-98178905D01*
X168920445Y-98274143D01*
X168872826Y-98321762D01*
X168777588Y-98369381D01*
X168491873Y-98369381D01*
X168396635Y-98321762D01*
X168349016Y-98274143D01*
X169920445Y-98369381D02*
X169349016Y-98369381D01*
X169634730Y-98369381D02*
X169634730Y-97369381D01*
X169539492Y-97512238D01*
X169444254Y-97607476D01*
X169349016Y-97655095D01*
X167030163Y-87224861D02*
X166696829Y-86748670D01*
X166458734Y-87224861D02*
X166458734Y-86224861D01*
X166839687Y-86224861D01*
X166934925Y-86272480D01*
X166982544Y-86320099D01*
X167030163Y-86415337D01*
X167030163Y-86558194D01*
X166982544Y-86653432D01*
X166934925Y-86701051D01*
X166839687Y-86748670D01*
X166458734Y-86748670D01*
X167363496Y-86224861D02*
X167982544Y-86224861D01*
X167649210Y-86605813D01*
X167792068Y-86605813D01*
X167887306Y-86653432D01*
X167934925Y-86701051D01*
X167982544Y-86796290D01*
X167982544Y-87034385D01*
X167934925Y-87129623D01*
X167887306Y-87177242D01*
X167792068Y-87224861D01*
X167506353Y-87224861D01*
X167411115Y-87177242D01*
X167363496Y-87129623D01*
X168601591Y-86224861D02*
X168696830Y-86224861D01*
X168792068Y-86272480D01*
X168839687Y-86320099D01*
X168887306Y-86415337D01*
X168934925Y-86605813D01*
X168934925Y-86843909D01*
X168887306Y-87034385D01*
X168839687Y-87129623D01*
X168792068Y-87177242D01*
X168696830Y-87224861D01*
X168601591Y-87224861D01*
X168506353Y-87177242D01*
X168458734Y-87129623D01*
X168411115Y-87034385D01*
X168363496Y-86843909D01*
X168363496Y-86605813D01*
X168411115Y-86415337D01*
X168458734Y-86320099D01*
X168506353Y-86272480D01*
X168601591Y-86224861D01*
X153558003Y-80487781D02*
X153224669Y-80011590D01*
X152986574Y-80487781D02*
X152986574Y-79487781D01*
X153367527Y-79487781D01*
X153462765Y-79535400D01*
X153510384Y-79583019D01*
X153558003Y-79678257D01*
X153558003Y-79821114D01*
X153510384Y-79916352D01*
X153462765Y-79963971D01*
X153367527Y-80011590D01*
X152986574Y-80011590D01*
X153938955Y-79583019D02*
X153986574Y-79535400D01*
X154081812Y-79487781D01*
X154319908Y-79487781D01*
X154415146Y-79535400D01*
X154462765Y-79583019D01*
X154510384Y-79678257D01*
X154510384Y-79773495D01*
X154462765Y-79916352D01*
X153891336Y-80487781D01*
X154510384Y-80487781D01*
X154986574Y-80487781D02*
X155177050Y-80487781D01*
X155272289Y-80440162D01*
X155319908Y-80392543D01*
X155415146Y-80249686D01*
X155462765Y-80059210D01*
X155462765Y-79678257D01*
X155415146Y-79583019D01*
X155367527Y-79535400D01*
X155272289Y-79487781D01*
X155081812Y-79487781D01*
X154986574Y-79535400D01*
X154938955Y-79583019D01*
X154891336Y-79678257D01*
X154891336Y-79916352D01*
X154938955Y-80011590D01*
X154986574Y-80059210D01*
X155081812Y-80106829D01*
X155272289Y-80106829D01*
X155367527Y-80059210D01*
X155415146Y-80011590D01*
X155462765Y-79916352D01*
X150230603Y-80496401D02*
X149897269Y-80020210D01*
X149659174Y-80496401D02*
X149659174Y-79496401D01*
X150040127Y-79496401D01*
X150135365Y-79544020D01*
X150182984Y-79591639D01*
X150230603Y-79686877D01*
X150230603Y-79829734D01*
X150182984Y-79924972D01*
X150135365Y-79972591D01*
X150040127Y-80020210D01*
X149659174Y-80020210D01*
X150611555Y-79591639D02*
X150659174Y-79544020D01*
X150754412Y-79496401D01*
X150992508Y-79496401D01*
X151087746Y-79544020D01*
X151135365Y-79591639D01*
X151182984Y-79686877D01*
X151182984Y-79782115D01*
X151135365Y-79924972D01*
X150563936Y-80496401D01*
X151182984Y-80496401D01*
X151754412Y-79924972D02*
X151659174Y-79877353D01*
X151611555Y-79829734D01*
X151563936Y-79734496D01*
X151563936Y-79686877D01*
X151611555Y-79591639D01*
X151659174Y-79544020D01*
X151754412Y-79496401D01*
X151944889Y-79496401D01*
X152040127Y-79544020D01*
X152087746Y-79591639D01*
X152135365Y-79686877D01*
X152135365Y-79734496D01*
X152087746Y-79829734D01*
X152040127Y-79877353D01*
X151944889Y-79924972D01*
X151754412Y-79924972D01*
X151659174Y-79972591D01*
X151611555Y-80020210D01*
X151563936Y-80115449D01*
X151563936Y-80305925D01*
X151611555Y-80401163D01*
X151659174Y-80448782D01*
X151754412Y-80496401D01*
X151944889Y-80496401D01*
X152040127Y-80448782D01*
X152087746Y-80401163D01*
X152135365Y-80305925D01*
X152135365Y-80115449D01*
X152087746Y-80020210D01*
X152040127Y-79972591D01*
X151944889Y-79924972D01*
X163834843Y-87222321D02*
X163501509Y-86746130D01*
X163263414Y-87222321D02*
X163263414Y-86222321D01*
X163644367Y-86222321D01*
X163739605Y-86269940D01*
X163787224Y-86317559D01*
X163834843Y-86412797D01*
X163834843Y-86555654D01*
X163787224Y-86650892D01*
X163739605Y-86698511D01*
X163644367Y-86746130D01*
X163263414Y-86746130D01*
X164215795Y-86317559D02*
X164263414Y-86269940D01*
X164358652Y-86222321D01*
X164596748Y-86222321D01*
X164691986Y-86269940D01*
X164739605Y-86317559D01*
X164787224Y-86412797D01*
X164787224Y-86508035D01*
X164739605Y-86650892D01*
X164168176Y-87222321D01*
X164787224Y-87222321D01*
X165120557Y-86222321D02*
X165787224Y-86222321D01*
X165358652Y-87222321D01*
X155178523Y-89720681D02*
X154845189Y-89244490D01*
X154607094Y-89720681D02*
X154607094Y-88720681D01*
X154988047Y-88720681D01*
X155083285Y-88768300D01*
X155130904Y-88815919D01*
X155178523Y-88911157D01*
X155178523Y-89054014D01*
X155130904Y-89149252D01*
X155083285Y-89196871D01*
X154988047Y-89244490D01*
X154607094Y-89244490D01*
X155559475Y-88815919D02*
X155607094Y-88768300D01*
X155702332Y-88720681D01*
X155940428Y-88720681D01*
X156035666Y-88768300D01*
X156083285Y-88815919D01*
X156130904Y-88911157D01*
X156130904Y-89006395D01*
X156083285Y-89149252D01*
X155511856Y-89720681D01*
X156130904Y-89720681D01*
X156988047Y-88720681D02*
X156797570Y-88720681D01*
X156702332Y-88768300D01*
X156654713Y-88815919D01*
X156559475Y-88958776D01*
X156511856Y-89149252D01*
X156511856Y-89530205D01*
X156559475Y-89625443D01*
X156607094Y-89673062D01*
X156702332Y-89720681D01*
X156892809Y-89720681D01*
X156988047Y-89673062D01*
X157035666Y-89625443D01*
X157083285Y-89530205D01*
X157083285Y-89292110D01*
X157035666Y-89196871D01*
X156988047Y-89149252D01*
X156892809Y-89101633D01*
X156702332Y-89101633D01*
X156607094Y-89149252D01*
X156559475Y-89196871D01*
X156511856Y-89292110D01*
X159979123Y-80411581D02*
X159645789Y-79935390D01*
X159407694Y-80411581D02*
X159407694Y-79411581D01*
X159788647Y-79411581D01*
X159883885Y-79459200D01*
X159931504Y-79506819D01*
X159979123Y-79602057D01*
X159979123Y-79744914D01*
X159931504Y-79840152D01*
X159883885Y-79887771D01*
X159788647Y-79935390D01*
X159407694Y-79935390D01*
X160360075Y-79506819D02*
X160407694Y-79459200D01*
X160502932Y-79411581D01*
X160741028Y-79411581D01*
X160836266Y-79459200D01*
X160883885Y-79506819D01*
X160931504Y-79602057D01*
X160931504Y-79697295D01*
X160883885Y-79840152D01*
X160312456Y-80411581D01*
X160931504Y-80411581D01*
X161836266Y-79411581D02*
X161360075Y-79411581D01*
X161312456Y-79887771D01*
X161360075Y-79840152D01*
X161455313Y-79792533D01*
X161693409Y-79792533D01*
X161788647Y-79840152D01*
X161836266Y-79887771D01*
X161883885Y-79983010D01*
X161883885Y-80221105D01*
X161836266Y-80316343D01*
X161788647Y-80363962D01*
X161693409Y-80411581D01*
X161455313Y-80411581D01*
X161360075Y-80363962D01*
X161312456Y-80316343D01*
X155358863Y-84114901D02*
X155025529Y-83638710D01*
X154787434Y-84114901D02*
X154787434Y-83114901D01*
X155168387Y-83114901D01*
X155263625Y-83162520D01*
X155311244Y-83210139D01*
X155358863Y-83305377D01*
X155358863Y-83448234D01*
X155311244Y-83543472D01*
X155263625Y-83591091D01*
X155168387Y-83638710D01*
X154787434Y-83638710D01*
X155739815Y-83210139D02*
X155787434Y-83162520D01*
X155882672Y-83114901D01*
X156120768Y-83114901D01*
X156216006Y-83162520D01*
X156263625Y-83210139D01*
X156311244Y-83305377D01*
X156311244Y-83400615D01*
X156263625Y-83543472D01*
X155692196Y-84114901D01*
X156311244Y-84114901D01*
X157168387Y-83448234D02*
X157168387Y-84114901D01*
X156930291Y-83067282D02*
X156692196Y-83781568D01*
X157311244Y-83781568D01*
X139659621Y-126141717D02*
X139183430Y-126475051D01*
X139659621Y-126713146D02*
X138659621Y-126713146D01*
X138659621Y-126332193D01*
X138707240Y-126236955D01*
X138754859Y-126189336D01*
X138850097Y-126141717D01*
X138992954Y-126141717D01*
X139088192Y-126189336D01*
X139135811Y-126236955D01*
X139183430Y-126332193D01*
X139183430Y-126713146D01*
X138754859Y-125760765D02*
X138707240Y-125713146D01*
X138659621Y-125617908D01*
X138659621Y-125379812D01*
X138707240Y-125284574D01*
X138754859Y-125236955D01*
X138850097Y-125189336D01*
X138945335Y-125189336D01*
X139088192Y-125236955D01*
X139659621Y-125808384D01*
X139659621Y-125189336D01*
X138659621Y-124856003D02*
X138659621Y-124236955D01*
X139040573Y-124570289D01*
X139040573Y-124427431D01*
X139088192Y-124332193D01*
X139135811Y-124284574D01*
X139231050Y-124236955D01*
X139469145Y-124236955D01*
X139564383Y-124284574D01*
X139612002Y-124332193D01*
X139659621Y-124427431D01*
X139659621Y-124713146D01*
X139612002Y-124808384D01*
X139564383Y-124856003D01*
X137490461Y-126225537D02*
X137014270Y-126558871D01*
X137490461Y-126796966D02*
X136490461Y-126796966D01*
X136490461Y-126416013D01*
X136538080Y-126320775D01*
X136585699Y-126273156D01*
X136680937Y-126225537D01*
X136823794Y-126225537D01*
X136919032Y-126273156D01*
X136966651Y-126320775D01*
X137014270Y-126416013D01*
X137014270Y-126796966D01*
X136585699Y-125844585D02*
X136538080Y-125796966D01*
X136490461Y-125701728D01*
X136490461Y-125463632D01*
X136538080Y-125368394D01*
X136585699Y-125320775D01*
X136680937Y-125273156D01*
X136776175Y-125273156D01*
X136919032Y-125320775D01*
X137490461Y-125892204D01*
X137490461Y-125273156D01*
X136585699Y-124892204D02*
X136538080Y-124844585D01*
X136490461Y-124749347D01*
X136490461Y-124511251D01*
X136538080Y-124416013D01*
X136585699Y-124368394D01*
X136680937Y-124320775D01*
X136776175Y-124320775D01*
X136919032Y-124368394D01*
X137490461Y-124939823D01*
X137490461Y-124320775D01*
X135311141Y-126162037D02*
X134834950Y-126495371D01*
X135311141Y-126733466D02*
X134311141Y-126733466D01*
X134311141Y-126352513D01*
X134358760Y-126257275D01*
X134406379Y-126209656D01*
X134501617Y-126162037D01*
X134644474Y-126162037D01*
X134739712Y-126209656D01*
X134787331Y-126257275D01*
X134834950Y-126352513D01*
X134834950Y-126733466D01*
X134406379Y-125781085D02*
X134358760Y-125733466D01*
X134311141Y-125638228D01*
X134311141Y-125400132D01*
X134358760Y-125304894D01*
X134406379Y-125257275D01*
X134501617Y-125209656D01*
X134596855Y-125209656D01*
X134739712Y-125257275D01*
X135311141Y-125828704D01*
X135311141Y-125209656D01*
X135311141Y-124257275D02*
X135311141Y-124828704D01*
X135311141Y-124542990D02*
X134311141Y-124542990D01*
X134453998Y-124638228D01*
X134549236Y-124733466D01*
X134596855Y-124828704D01*
X133093721Y-126258557D02*
X132617530Y-126591891D01*
X133093721Y-126829986D02*
X132093721Y-126829986D01*
X132093721Y-126449033D01*
X132141340Y-126353795D01*
X132188959Y-126306176D01*
X132284197Y-126258557D01*
X132427054Y-126258557D01*
X132522292Y-126306176D01*
X132569911Y-126353795D01*
X132617530Y-126449033D01*
X132617530Y-126829986D01*
X132188959Y-125877605D02*
X132141340Y-125829986D01*
X132093721Y-125734748D01*
X132093721Y-125496652D01*
X132141340Y-125401414D01*
X132188959Y-125353795D01*
X132284197Y-125306176D01*
X132379435Y-125306176D01*
X132522292Y-125353795D01*
X133093721Y-125925224D01*
X133093721Y-125306176D01*
X132093721Y-124687129D02*
X132093721Y-124591890D01*
X132141340Y-124496652D01*
X132188959Y-124449033D01*
X132284197Y-124401414D01*
X132474673Y-124353795D01*
X132712769Y-124353795D01*
X132903245Y-124401414D01*
X132998483Y-124449033D01*
X133046102Y-124496652D01*
X133093721Y-124591890D01*
X133093721Y-124687129D01*
X133046102Y-124782367D01*
X132998483Y-124829986D01*
X132903245Y-124877605D01*
X132712769Y-124925224D01*
X132474673Y-124925224D01*
X132284197Y-124877605D01*
X132188959Y-124829986D01*
X132141340Y-124782367D01*
X132093721Y-124687129D01*
X130800101Y-126233157D02*
X130323910Y-126566491D01*
X130800101Y-126804586D02*
X129800101Y-126804586D01*
X129800101Y-126423633D01*
X129847720Y-126328395D01*
X129895339Y-126280776D01*
X129990577Y-126233157D01*
X130133434Y-126233157D01*
X130228672Y-126280776D01*
X130276291Y-126328395D01*
X130323910Y-126423633D01*
X130323910Y-126804586D01*
X130800101Y-125280776D02*
X130800101Y-125852205D01*
X130800101Y-125566491D02*
X129800101Y-125566491D01*
X129942958Y-125661729D01*
X130038196Y-125756967D01*
X130085815Y-125852205D01*
X130800101Y-124804586D02*
X130800101Y-124614110D01*
X130752482Y-124518871D01*
X130704863Y-124471252D01*
X130562006Y-124376014D01*
X130371530Y-124328395D01*
X129990577Y-124328395D01*
X129895339Y-124376014D01*
X129847720Y-124423633D01*
X129800101Y-124518871D01*
X129800101Y-124709348D01*
X129847720Y-124804586D01*
X129895339Y-124852205D01*
X129990577Y-124899824D01*
X130228672Y-124899824D01*
X130323910Y-124852205D01*
X130371530Y-124804586D01*
X130419149Y-124709348D01*
X130419149Y-124518871D01*
X130371530Y-124423633D01*
X130323910Y-124376014D01*
X130228672Y-124328395D01*
X128633481Y-126250937D02*
X128157290Y-126584271D01*
X128633481Y-126822366D02*
X127633481Y-126822366D01*
X127633481Y-126441413D01*
X127681100Y-126346175D01*
X127728719Y-126298556D01*
X127823957Y-126250937D01*
X127966814Y-126250937D01*
X128062052Y-126298556D01*
X128109671Y-126346175D01*
X128157290Y-126441413D01*
X128157290Y-126822366D01*
X128633481Y-125298556D02*
X128633481Y-125869985D01*
X128633481Y-125584271D02*
X127633481Y-125584271D01*
X127776338Y-125679509D01*
X127871576Y-125774747D01*
X127919195Y-125869985D01*
X128062052Y-124727128D02*
X128014433Y-124822366D01*
X127966814Y-124869985D01*
X127871576Y-124917604D01*
X127823957Y-124917604D01*
X127728719Y-124869985D01*
X127681100Y-124822366D01*
X127633481Y-124727128D01*
X127633481Y-124536651D01*
X127681100Y-124441413D01*
X127728719Y-124393794D01*
X127823957Y-124346175D01*
X127871576Y-124346175D01*
X127966814Y-124393794D01*
X128014433Y-124441413D01*
X128062052Y-124536651D01*
X128062052Y-124727128D01*
X128109671Y-124822366D01*
X128157290Y-124869985D01*
X128252529Y-124917604D01*
X128443005Y-124917604D01*
X128538243Y-124869985D01*
X128585862Y-124822366D01*
X128633481Y-124727128D01*
X128633481Y-124536651D01*
X128585862Y-124441413D01*
X128538243Y-124393794D01*
X128443005Y-124346175D01*
X128252529Y-124346175D01*
X128157290Y-124393794D01*
X128109671Y-124441413D01*
X128062052Y-124536651D01*
X126309381Y-126172197D02*
X125833190Y-126505531D01*
X126309381Y-126743626D02*
X125309381Y-126743626D01*
X125309381Y-126362673D01*
X125357000Y-126267435D01*
X125404619Y-126219816D01*
X125499857Y-126172197D01*
X125642714Y-126172197D01*
X125737952Y-126219816D01*
X125785571Y-126267435D01*
X125833190Y-126362673D01*
X125833190Y-126743626D01*
X126309381Y-125219816D02*
X126309381Y-125791245D01*
X126309381Y-125505531D02*
X125309381Y-125505531D01*
X125452238Y-125600769D01*
X125547476Y-125696007D01*
X125595095Y-125791245D01*
X125309381Y-124886483D02*
X125309381Y-124219816D01*
X126309381Y-124648388D01*
X124015761Y-126134097D02*
X123539570Y-126467431D01*
X124015761Y-126705526D02*
X123015761Y-126705526D01*
X123015761Y-126324573D01*
X123063380Y-126229335D01*
X123110999Y-126181716D01*
X123206237Y-126134097D01*
X123349094Y-126134097D01*
X123444332Y-126181716D01*
X123491951Y-126229335D01*
X123539570Y-126324573D01*
X123539570Y-126705526D01*
X124015761Y-125181716D02*
X124015761Y-125753145D01*
X124015761Y-125467431D02*
X123015761Y-125467431D01*
X123158618Y-125562669D01*
X123253856Y-125657907D01*
X123301475Y-125753145D01*
X123015761Y-124324573D02*
X123015761Y-124515050D01*
X123063380Y-124610288D01*
X123110999Y-124657907D01*
X123253856Y-124753145D01*
X123444332Y-124800764D01*
X123825285Y-124800764D01*
X123920523Y-124753145D01*
X123968142Y-124705526D01*
X124015761Y-124610288D01*
X124015761Y-124419811D01*
X123968142Y-124324573D01*
X123920523Y-124276954D01*
X123825285Y-124229335D01*
X123587190Y-124229335D01*
X123491951Y-124276954D01*
X123444332Y-124324573D01*
X123396713Y-124419811D01*
X123396713Y-124610288D01*
X123444332Y-124705526D01*
X123491951Y-124753145D01*
X123587190Y-124800764D01*
X121635781Y-126070597D02*
X121159590Y-126403931D01*
X121635781Y-126642026D02*
X120635781Y-126642026D01*
X120635781Y-126261073D01*
X120683400Y-126165835D01*
X120731019Y-126118216D01*
X120826257Y-126070597D01*
X120969114Y-126070597D01*
X121064352Y-126118216D01*
X121111971Y-126165835D01*
X121159590Y-126261073D01*
X121159590Y-126642026D01*
X121635781Y-125118216D02*
X121635781Y-125689645D01*
X121635781Y-125403931D02*
X120635781Y-125403931D01*
X120778638Y-125499169D01*
X120873876Y-125594407D01*
X120921495Y-125689645D01*
X120635781Y-124213454D02*
X120635781Y-124689645D01*
X121111971Y-124737264D01*
X121064352Y-124689645D01*
X121016733Y-124594407D01*
X121016733Y-124356311D01*
X121064352Y-124261073D01*
X121111971Y-124213454D01*
X121207210Y-124165835D01*
X121445305Y-124165835D01*
X121540543Y-124213454D01*
X121588162Y-124261073D01*
X121635781Y-124356311D01*
X121635781Y-124594407D01*
X121588162Y-124689645D01*
X121540543Y-124737264D01*
X119337081Y-126144257D02*
X118860890Y-126477591D01*
X119337081Y-126715686D02*
X118337081Y-126715686D01*
X118337081Y-126334733D01*
X118384700Y-126239495D01*
X118432319Y-126191876D01*
X118527557Y-126144257D01*
X118670414Y-126144257D01*
X118765652Y-126191876D01*
X118813271Y-126239495D01*
X118860890Y-126334733D01*
X118860890Y-126715686D01*
X119337081Y-125191876D02*
X119337081Y-125763305D01*
X119337081Y-125477591D02*
X118337081Y-125477591D01*
X118479938Y-125572829D01*
X118575176Y-125668067D01*
X118622795Y-125763305D01*
X118670414Y-124334733D02*
X119337081Y-124334733D01*
X118289462Y-124572829D02*
X119003748Y-124810924D01*
X119003748Y-124191876D01*
X117099341Y-126101077D02*
X116623150Y-126434411D01*
X117099341Y-126672506D02*
X116099341Y-126672506D01*
X116099341Y-126291553D01*
X116146960Y-126196315D01*
X116194579Y-126148696D01*
X116289817Y-126101077D01*
X116432674Y-126101077D01*
X116527912Y-126148696D01*
X116575531Y-126196315D01*
X116623150Y-126291553D01*
X116623150Y-126672506D01*
X117099341Y-125148696D02*
X117099341Y-125720125D01*
X117099341Y-125434411D02*
X116099341Y-125434411D01*
X116242198Y-125529649D01*
X116337436Y-125624887D01*
X116385055Y-125720125D01*
X116099341Y-124815363D02*
X116099341Y-124196315D01*
X116480293Y-124529649D01*
X116480293Y-124386791D01*
X116527912Y-124291553D01*
X116575531Y-124243934D01*
X116670770Y-124196315D01*
X116908865Y-124196315D01*
X117004103Y-124243934D01*
X117051722Y-124291553D01*
X117099341Y-124386791D01*
X117099341Y-124672506D01*
X117051722Y-124767744D01*
X117004103Y-124815363D01*
X114846361Y-126108697D02*
X114370170Y-126442031D01*
X114846361Y-126680126D02*
X113846361Y-126680126D01*
X113846361Y-126299173D01*
X113893980Y-126203935D01*
X113941599Y-126156316D01*
X114036837Y-126108697D01*
X114179694Y-126108697D01*
X114274932Y-126156316D01*
X114322551Y-126203935D01*
X114370170Y-126299173D01*
X114370170Y-126680126D01*
X114846361Y-125156316D02*
X114846361Y-125727745D01*
X114846361Y-125442031D02*
X113846361Y-125442031D01*
X113989218Y-125537269D01*
X114084456Y-125632507D01*
X114132075Y-125727745D01*
X113941599Y-124775364D02*
X113893980Y-124727745D01*
X113846361Y-124632507D01*
X113846361Y-124394411D01*
X113893980Y-124299173D01*
X113941599Y-124251554D01*
X114036837Y-124203935D01*
X114132075Y-124203935D01*
X114274932Y-124251554D01*
X114846361Y-124822983D01*
X114846361Y-124203935D01*
X148866623Y-110006661D02*
X148533289Y-109530470D01*
X148295194Y-110006661D02*
X148295194Y-109006661D01*
X148676147Y-109006661D01*
X148771385Y-109054280D01*
X148819004Y-109101899D01*
X148866623Y-109197137D01*
X148866623Y-109339994D01*
X148819004Y-109435232D01*
X148771385Y-109482851D01*
X148676147Y-109530470D01*
X148295194Y-109530470D01*
X149819004Y-110006661D02*
X149247575Y-110006661D01*
X149533289Y-110006661D02*
X149533289Y-109006661D01*
X149438051Y-109149518D01*
X149342813Y-109244756D01*
X149247575Y-109292375D01*
X150771385Y-110006661D02*
X150199956Y-110006661D01*
X150485670Y-110006661D02*
X150485670Y-109006661D01*
X150390432Y-109149518D01*
X150295194Y-109244756D01*
X150199956Y-109292375D01*
X156522681Y-127614917D02*
X156046490Y-127948251D01*
X156522681Y-128186346D02*
X155522681Y-128186346D01*
X155522681Y-127805393D01*
X155570300Y-127710155D01*
X155617919Y-127662536D01*
X155713157Y-127614917D01*
X155856014Y-127614917D01*
X155951252Y-127662536D01*
X155998871Y-127710155D01*
X156046490Y-127805393D01*
X156046490Y-128186346D01*
X156522681Y-126662536D02*
X156522681Y-127233965D01*
X156522681Y-126948251D02*
X155522681Y-126948251D01*
X155665538Y-127043489D01*
X155760776Y-127138727D01*
X155808395Y-127233965D01*
X155522681Y-126043489D02*
X155522681Y-125948250D01*
X155570300Y-125853012D01*
X155617919Y-125805393D01*
X155713157Y-125757774D01*
X155903633Y-125710155D01*
X156141729Y-125710155D01*
X156332205Y-125757774D01*
X156427443Y-125805393D01*
X156475062Y-125853012D01*
X156522681Y-125948250D01*
X156522681Y-126043489D01*
X156475062Y-126138727D01*
X156427443Y-126186346D01*
X156332205Y-126233965D01*
X156141729Y-126281584D01*
X155903633Y-126281584D01*
X155713157Y-126233965D01*
X155617919Y-126186346D01*
X155570300Y-126138727D01*
X155522681Y-126043489D01*
X160145434Y-123746521D02*
X159812100Y-123270330D01*
X159574005Y-123746521D02*
X159574005Y-122746521D01*
X159954958Y-122746521D01*
X160050196Y-122794140D01*
X160097815Y-122841759D01*
X160145434Y-122936997D01*
X160145434Y-123079854D01*
X160097815Y-123175092D01*
X160050196Y-123222711D01*
X159954958Y-123270330D01*
X159574005Y-123270330D01*
X160621624Y-123746521D02*
X160812100Y-123746521D01*
X160907339Y-123698902D01*
X160954958Y-123651283D01*
X161050196Y-123508426D01*
X161097815Y-123317950D01*
X161097815Y-122936997D01*
X161050196Y-122841759D01*
X161002577Y-122794140D01*
X160907339Y-122746521D01*
X160716862Y-122746521D01*
X160621624Y-122794140D01*
X160574005Y-122841759D01*
X160526386Y-122936997D01*
X160526386Y-123175092D01*
X160574005Y-123270330D01*
X160621624Y-123317950D01*
X160716862Y-123365569D01*
X160907339Y-123365569D01*
X161002577Y-123317950D01*
X161050196Y-123270330D01*
X161097815Y-123175092D01*
X140825481Y-145642626D02*
X140349290Y-145975960D01*
X140825481Y-146214055D02*
X139825481Y-146214055D01*
X139825481Y-145833102D01*
X139873100Y-145737864D01*
X139920719Y-145690245D01*
X140015957Y-145642626D01*
X140158814Y-145642626D01*
X140254052Y-145690245D01*
X140301671Y-145737864D01*
X140349290Y-145833102D01*
X140349290Y-146214055D01*
X140254052Y-145071198D02*
X140206433Y-145166436D01*
X140158814Y-145214055D01*
X140063576Y-145261674D01*
X140015957Y-145261674D01*
X139920719Y-145214055D01*
X139873100Y-145166436D01*
X139825481Y-145071198D01*
X139825481Y-144880721D01*
X139873100Y-144785483D01*
X139920719Y-144737864D01*
X140015957Y-144690245D01*
X140063576Y-144690245D01*
X140158814Y-144737864D01*
X140206433Y-144785483D01*
X140254052Y-144880721D01*
X140254052Y-145071198D01*
X140301671Y-145166436D01*
X140349290Y-145214055D01*
X140444529Y-145261674D01*
X140635005Y-145261674D01*
X140730243Y-145214055D01*
X140777862Y-145166436D01*
X140825481Y-145071198D01*
X140825481Y-144880721D01*
X140777862Y-144785483D01*
X140730243Y-144737864D01*
X140635005Y-144690245D01*
X140444529Y-144690245D01*
X140349290Y-144737864D01*
X140301671Y-144785483D01*
X140254052Y-144880721D01*
X145264121Y-145782326D02*
X144787930Y-146115660D01*
X145264121Y-146353755D02*
X144264121Y-146353755D01*
X144264121Y-145972802D01*
X144311740Y-145877564D01*
X144359359Y-145829945D01*
X144454597Y-145782326D01*
X144597454Y-145782326D01*
X144692692Y-145829945D01*
X144740311Y-145877564D01*
X144787930Y-145972802D01*
X144787930Y-146353755D01*
X144264121Y-145448993D02*
X144264121Y-144782326D01*
X145264121Y-145210898D01*
X144674841Y-147933706D02*
X144198650Y-148267040D01*
X144674841Y-148505135D02*
X143674841Y-148505135D01*
X143674841Y-148124182D01*
X143722460Y-148028944D01*
X143770079Y-147981325D01*
X143865317Y-147933706D01*
X144008174Y-147933706D01*
X144103412Y-147981325D01*
X144151031Y-148028944D01*
X144198650Y-148124182D01*
X144198650Y-148505135D01*
X143674841Y-147076563D02*
X143674841Y-147267040D01*
X143722460Y-147362278D01*
X143770079Y-147409897D01*
X143912936Y-147505135D01*
X144103412Y-147552754D01*
X144484365Y-147552754D01*
X144579603Y-147505135D01*
X144627222Y-147457516D01*
X144674841Y-147362278D01*
X144674841Y-147171801D01*
X144627222Y-147076563D01*
X144579603Y-147028944D01*
X144484365Y-146981325D01*
X144246270Y-146981325D01*
X144151031Y-147028944D01*
X144103412Y-147076563D01*
X144055793Y-147171801D01*
X144055793Y-147362278D01*
X144103412Y-147457516D01*
X144151031Y-147505135D01*
X144246270Y-147552754D01*
X165053261Y-145688346D02*
X164577070Y-146021680D01*
X165053261Y-146259775D02*
X164053261Y-146259775D01*
X164053261Y-145878822D01*
X164100880Y-145783584D01*
X164148499Y-145735965D01*
X164243737Y-145688346D01*
X164386594Y-145688346D01*
X164481832Y-145735965D01*
X164529451Y-145783584D01*
X164577070Y-145878822D01*
X164577070Y-146259775D01*
X164053261Y-144783584D02*
X164053261Y-145259775D01*
X164529451Y-145307394D01*
X164481832Y-145259775D01*
X164434213Y-145164537D01*
X164434213Y-144926441D01*
X164481832Y-144831203D01*
X164529451Y-144783584D01*
X164624690Y-144735965D01*
X164862785Y-144735965D01*
X164958023Y-144783584D01*
X165005642Y-144831203D01*
X165053261Y-144926441D01*
X165053261Y-145164537D01*
X165005642Y-145259775D01*
X164958023Y-145307394D01*
X164453821Y-147895606D02*
X163977630Y-148228940D01*
X164453821Y-148467035D02*
X163453821Y-148467035D01*
X163453821Y-148086082D01*
X163501440Y-147990844D01*
X163549059Y-147943225D01*
X163644297Y-147895606D01*
X163787154Y-147895606D01*
X163882392Y-147943225D01*
X163930011Y-147990844D01*
X163977630Y-148086082D01*
X163977630Y-148467035D01*
X163787154Y-147038463D02*
X164453821Y-147038463D01*
X163406202Y-147276559D02*
X164120488Y-147514654D01*
X164120488Y-146895606D01*
X118477281Y-114032326D02*
X118001090Y-114365660D01*
X118477281Y-114603755D02*
X117477281Y-114603755D01*
X117477281Y-114222802D01*
X117524900Y-114127564D01*
X117572519Y-114079945D01*
X117667757Y-114032326D01*
X117810614Y-114032326D01*
X117905852Y-114079945D01*
X117953471Y-114127564D01*
X118001090Y-114222802D01*
X118001090Y-114603755D01*
X117477281Y-113698993D02*
X117477281Y-113079945D01*
X117858233Y-113413279D01*
X117858233Y-113270421D01*
X117905852Y-113175183D01*
X117953471Y-113127564D01*
X118048710Y-113079945D01*
X118286805Y-113079945D01*
X118382043Y-113127564D01*
X118429662Y-113175183D01*
X118477281Y-113270421D01*
X118477281Y-113556136D01*
X118429662Y-113651374D01*
X118382043Y-113698993D01*
X116546334Y-112634021D02*
X116213000Y-112157830D01*
X115974905Y-112634021D02*
X115974905Y-111634021D01*
X116355858Y-111634021D01*
X116451096Y-111681640D01*
X116498715Y-111729259D01*
X116546334Y-111824497D01*
X116546334Y-111967354D01*
X116498715Y-112062592D01*
X116451096Y-112110211D01*
X116355858Y-112157830D01*
X115974905Y-112157830D01*
X116927286Y-111729259D02*
X116974905Y-111681640D01*
X117070143Y-111634021D01*
X117308239Y-111634021D01*
X117403477Y-111681640D01*
X117451096Y-111729259D01*
X117498715Y-111824497D01*
X117498715Y-111919735D01*
X117451096Y-112062592D01*
X116879667Y-112634021D01*
X117498715Y-112634021D01*
X108248721Y-115383606D02*
X107772530Y-115716940D01*
X108248721Y-115955035D02*
X107248721Y-115955035D01*
X107248721Y-115574082D01*
X107296340Y-115478844D01*
X107343959Y-115431225D01*
X107439197Y-115383606D01*
X107582054Y-115383606D01*
X107677292Y-115431225D01*
X107724911Y-115478844D01*
X107772530Y-115574082D01*
X107772530Y-115955035D01*
X108248721Y-114431225D02*
X108248721Y-115002654D01*
X108248721Y-114716940D02*
X107248721Y-114716940D01*
X107391578Y-114812178D01*
X107486816Y-114907416D01*
X107534435Y-115002654D01*
X170933339Y-84481698D02*
X170885720Y-84576936D01*
X170790482Y-84672174D01*
X170647625Y-84815031D01*
X170600006Y-84910270D01*
X170600006Y-85005508D01*
X170838101Y-84957889D02*
X170790482Y-85053127D01*
X170695244Y-85148365D01*
X170504768Y-85195984D01*
X170171434Y-85195984D01*
X169980958Y-85148365D01*
X169885720Y-85053127D01*
X169838101Y-84957889D01*
X169838101Y-84767412D01*
X169885720Y-84672174D01*
X169980958Y-84576936D01*
X170171434Y-84529317D01*
X170504768Y-84529317D01*
X170695244Y-84576936D01*
X170790482Y-84672174D01*
X170838101Y-84767412D01*
X170838101Y-84957889D01*
X170838101Y-83576936D02*
X170838101Y-84148365D01*
X170838101Y-83862651D02*
X169838101Y-83862651D01*
X169980958Y-83957889D01*
X170076196Y-84053127D01*
X170123815Y-84148365D01*
X111021905Y-105552381D02*
X111021905Y-104552381D01*
X111402858Y-104552381D01*
X111498096Y-104600000D01*
X111545715Y-104647619D01*
X111593334Y-104742857D01*
X111593334Y-104885714D01*
X111545715Y-104980952D01*
X111498096Y-105028571D01*
X111402858Y-105076190D01*
X111021905Y-105076190D01*
X112021905Y-105552381D02*
X112021905Y-104552381D01*
X112402858Y-104552381D01*
X112498096Y-104600000D01*
X112545715Y-104647619D01*
X112593334Y-104742857D01*
X112593334Y-104885714D01*
X112545715Y-104980952D01*
X112498096Y-105028571D01*
X112402858Y-105076190D01*
X112021905Y-105076190D01*
X112926667Y-104552381D02*
X113593334Y-104552381D01*
X113164762Y-105552381D01*
X148210425Y-92298581D02*
X148210425Y-91298581D01*
X148591378Y-91298581D01*
X148686616Y-91346200D01*
X148734235Y-91393819D01*
X148781854Y-91489057D01*
X148781854Y-91631914D01*
X148734235Y-91727152D01*
X148686616Y-91774771D01*
X148591378Y-91822390D01*
X148210425Y-91822390D01*
X149210425Y-92298581D02*
X149210425Y-91298581D01*
X149591378Y-91298581D01*
X149686616Y-91346200D01*
X149734235Y-91393819D01*
X149781854Y-91489057D01*
X149781854Y-91631914D01*
X149734235Y-91727152D01*
X149686616Y-91774771D01*
X149591378Y-91822390D01*
X149210425Y-91822390D01*
X150638997Y-91298581D02*
X150448520Y-91298581D01*
X150353282Y-91346200D01*
X150305663Y-91393819D01*
X150210425Y-91536676D01*
X150162806Y-91727152D01*
X150162806Y-92108105D01*
X150210425Y-92203343D01*
X150258044Y-92250962D01*
X150353282Y-92298581D01*
X150543759Y-92298581D01*
X150638997Y-92250962D01*
X150686616Y-92203343D01*
X150734235Y-92108105D01*
X150734235Y-91870010D01*
X150686616Y-91774771D01*
X150638997Y-91727152D01*
X150543759Y-91679533D01*
X150353282Y-91679533D01*
X150258044Y-91727152D01*
X150210425Y-91774771D01*
X150162806Y-91870010D01*
X122441905Y-108686501D02*
X122441905Y-107686501D01*
X122822858Y-107686501D01*
X122918096Y-107734120D01*
X122965715Y-107781739D01*
X123013334Y-107876977D01*
X123013334Y-108019834D01*
X122965715Y-108115072D01*
X122918096Y-108162691D01*
X122822858Y-108210310D01*
X122441905Y-108210310D01*
X123441905Y-108686501D02*
X123441905Y-107686501D01*
X123822858Y-107686501D01*
X123918096Y-107734120D01*
X123965715Y-107781739D01*
X124013334Y-107876977D01*
X124013334Y-108019834D01*
X123965715Y-108115072D01*
X123918096Y-108162691D01*
X123822858Y-108210310D01*
X123441905Y-108210310D01*
X124918096Y-107686501D02*
X124441905Y-107686501D01*
X124394286Y-108162691D01*
X124441905Y-108115072D01*
X124537143Y-108067453D01*
X124775239Y-108067453D01*
X124870477Y-108115072D01*
X124918096Y-108162691D01*
X124965715Y-108257930D01*
X124965715Y-108496025D01*
X124918096Y-108591263D01*
X124870477Y-108638882D01*
X124775239Y-108686501D01*
X124537143Y-108686501D01*
X124441905Y-108638882D01*
X124394286Y-108591263D01*
X151641965Y-114572041D02*
X151641965Y-113572041D01*
X152022918Y-113572041D01*
X152118156Y-113619660D01*
X152165775Y-113667279D01*
X152213394Y-113762517D01*
X152213394Y-113905374D01*
X152165775Y-114000612D01*
X152118156Y-114048231D01*
X152022918Y-114095850D01*
X151641965Y-114095850D01*
X152641965Y-114572041D02*
X152641965Y-113572041D01*
X153022918Y-113572041D01*
X153118156Y-113619660D01*
X153165775Y-113667279D01*
X153213394Y-113762517D01*
X153213394Y-113905374D01*
X153165775Y-114000612D01*
X153118156Y-114048231D01*
X153022918Y-114095850D01*
X152641965Y-114095850D01*
X154070537Y-113905374D02*
X154070537Y-114572041D01*
X153832441Y-113524422D02*
X153594346Y-114238708D01*
X154213394Y-114238708D01*
X128540665Y-116560861D02*
X128540665Y-115560861D01*
X128921618Y-115560861D01*
X129016856Y-115608480D01*
X129064475Y-115656099D01*
X129112094Y-115751337D01*
X129112094Y-115894194D01*
X129064475Y-115989432D01*
X129016856Y-116037051D01*
X128921618Y-116084670D01*
X128540665Y-116084670D01*
X129540665Y-116560861D02*
X129540665Y-115560861D01*
X129921618Y-115560861D01*
X130016856Y-115608480D01*
X130064475Y-115656099D01*
X130112094Y-115751337D01*
X130112094Y-115894194D01*
X130064475Y-115989432D01*
X130016856Y-116037051D01*
X129921618Y-116084670D01*
X129540665Y-116084670D01*
X130445427Y-115560861D02*
X131064475Y-115560861D01*
X130731141Y-115941813D01*
X130873999Y-115941813D01*
X130969237Y-115989432D01*
X131016856Y-116037051D01*
X131064475Y-116132290D01*
X131064475Y-116370385D01*
X131016856Y-116465623D01*
X130969237Y-116513242D01*
X130873999Y-116560861D01*
X130588284Y-116560861D01*
X130493046Y-116513242D01*
X130445427Y-116465623D01*
X110986725Y-107134921D02*
X110986725Y-106134921D01*
X111367678Y-106134921D01*
X111462916Y-106182540D01*
X111510535Y-106230159D01*
X111558154Y-106325397D01*
X111558154Y-106468254D01*
X111510535Y-106563492D01*
X111462916Y-106611111D01*
X111367678Y-106658730D01*
X110986725Y-106658730D01*
X111986725Y-107134921D02*
X111986725Y-106134921D01*
X112367678Y-106134921D01*
X112462916Y-106182540D01*
X112510535Y-106230159D01*
X112558154Y-106325397D01*
X112558154Y-106468254D01*
X112510535Y-106563492D01*
X112462916Y-106611111D01*
X112367678Y-106658730D01*
X111986725Y-106658730D01*
X112939106Y-106230159D02*
X112986725Y-106182540D01*
X113081963Y-106134921D01*
X113320059Y-106134921D01*
X113415297Y-106182540D01*
X113462916Y-106230159D01*
X113510535Y-106325397D01*
X113510535Y-106420635D01*
X113462916Y-106563492D01*
X112891487Y-107134921D01*
X113510535Y-107134921D01*
X117291005Y-121572281D02*
X117291005Y-120572281D01*
X117671958Y-120572281D01*
X117767196Y-120619900D01*
X117814815Y-120667519D01*
X117862434Y-120762757D01*
X117862434Y-120905614D01*
X117814815Y-121000852D01*
X117767196Y-121048471D01*
X117671958Y-121096090D01*
X117291005Y-121096090D01*
X118291005Y-121572281D02*
X118291005Y-120572281D01*
X118671958Y-120572281D01*
X118767196Y-120619900D01*
X118814815Y-120667519D01*
X118862434Y-120762757D01*
X118862434Y-120905614D01*
X118814815Y-121000852D01*
X118767196Y-121048471D01*
X118671958Y-121096090D01*
X118291005Y-121096090D01*
X119814815Y-121572281D02*
X119243386Y-121572281D01*
X119529100Y-121572281D02*
X119529100Y-120572281D01*
X119433862Y-120715138D01*
X119338624Y-120810376D01*
X119243386Y-120857995D01*
X146621761Y-102485415D02*
X145621761Y-102485415D01*
X145621761Y-102104462D01*
X145669380Y-102009224D01*
X145716999Y-101961605D01*
X145812237Y-101913986D01*
X145955094Y-101913986D01*
X146050332Y-101961605D01*
X146097951Y-102009224D01*
X146145570Y-102104462D01*
X146145570Y-102485415D01*
X145621761Y-101580653D02*
X145621761Y-100961605D01*
X146002713Y-101294939D01*
X146002713Y-101152081D01*
X146050332Y-101056843D01*
X146097951Y-101009224D01*
X146193190Y-100961605D01*
X146431285Y-100961605D01*
X146526523Y-101009224D01*
X146574142Y-101056843D01*
X146621761Y-101152081D01*
X146621761Y-101437796D01*
X146574142Y-101533034D01*
X146526523Y-101580653D01*
X139820425Y-166339781D02*
X139820425Y-165339781D01*
X140201378Y-165339781D01*
X140296616Y-165387400D01*
X140344235Y-165435019D01*
X140391854Y-165530257D01*
X140391854Y-165673114D01*
X140344235Y-165768352D01*
X140296616Y-165815971D01*
X140201378Y-165863590D01*
X139820425Y-165863590D01*
X141344235Y-166339781D02*
X140772806Y-166339781D01*
X141058520Y-166339781D02*
X141058520Y-165339781D01*
X140963282Y-165482638D01*
X140868044Y-165577876D01*
X140772806Y-165625495D01*
X154260254Y-97033341D02*
X153784063Y-97033341D01*
X153784063Y-96033341D01*
X155022159Y-96366674D02*
X155022159Y-97033341D01*
X154784063Y-95985722D02*
X154545968Y-96700008D01*
X155165016Y-96700008D01*
X157326034Y-115166401D02*
X156849843Y-115166401D01*
X156849843Y-114166401D01*
X157564129Y-114166401D02*
X158183177Y-114166401D01*
X157849843Y-114547353D01*
X157992701Y-114547353D01*
X158087939Y-114594972D01*
X158135558Y-114642591D01*
X158183177Y-114737830D01*
X158183177Y-114975925D01*
X158135558Y-115071163D01*
X158087939Y-115118782D01*
X157992701Y-115166401D01*
X157706986Y-115166401D01*
X157611748Y-115118782D01*
X157564129Y-115071163D01*
X107834134Y-108882441D02*
X107357943Y-108882441D01*
X107357943Y-107882441D01*
X108119848Y-107977679D02*
X108167467Y-107930060D01*
X108262705Y-107882441D01*
X108500801Y-107882441D01*
X108596039Y-107930060D01*
X108643658Y-107977679D01*
X108691277Y-108072917D01*
X108691277Y-108168155D01*
X108643658Y-108311012D01*
X108072229Y-108882441D01*
X108691277Y-108882441D01*
X120417294Y-116281461D02*
X119941103Y-116281461D01*
X119941103Y-115281461D01*
X121274437Y-116281461D02*
X120703008Y-116281461D01*
X120988722Y-116281461D02*
X120988722Y-115281461D01*
X120893484Y-115424318D01*
X120798246Y-115519556D01*
X120703008Y-115567175D01*
X121540527Y-109814951D02*
X121207193Y-109814951D01*
X121207193Y-110338761D02*
X121207193Y-109338761D01*
X121683384Y-109338761D01*
X122016717Y-109433999D02*
X122064336Y-109386380D01*
X122159574Y-109338761D01*
X122397670Y-109338761D01*
X122492908Y-109386380D01*
X122540527Y-109433999D01*
X122588146Y-109529237D01*
X122588146Y-109624475D01*
X122540527Y-109767332D01*
X121969098Y-110338761D01*
X122588146Y-110338761D01*
X140875711Y-156670333D02*
X140875711Y-157003667D01*
X141399521Y-157003667D02*
X140399521Y-157003667D01*
X140399521Y-156527476D01*
X141399521Y-155622714D02*
X141399521Y-156194143D01*
X141399521Y-155908429D02*
X140399521Y-155908429D01*
X140542378Y-156003667D01*
X140637616Y-156098905D01*
X140685235Y-156194143D01*
X150846565Y-125652441D02*
X150846565Y-124652441D01*
X151084660Y-124652441D01*
X151227518Y-124700060D01*
X151322756Y-124795298D01*
X151370375Y-124890536D01*
X151417994Y-125081012D01*
X151417994Y-125223870D01*
X151370375Y-125414346D01*
X151322756Y-125509584D01*
X151227518Y-125604822D01*
X151084660Y-125652441D01*
X150846565Y-125652441D01*
X151798946Y-124747679D02*
X151846565Y-124700060D01*
X151941803Y-124652441D01*
X152179899Y-124652441D01*
X152275137Y-124700060D01*
X152322756Y-124747679D01*
X152370375Y-124842917D01*
X152370375Y-124938155D01*
X152322756Y-125081012D01*
X151751327Y-125652441D01*
X152370375Y-125652441D01*
X147234685Y-119771421D02*
X147234685Y-118771421D01*
X147472780Y-118771421D01*
X147615638Y-118819040D01*
X147710876Y-118914278D01*
X147758495Y-119009516D01*
X147806114Y-119199992D01*
X147806114Y-119342850D01*
X147758495Y-119533326D01*
X147710876Y-119628564D01*
X147615638Y-119723802D01*
X147472780Y-119771421D01*
X147234685Y-119771421D01*
X148758495Y-119771421D02*
X148187066Y-119771421D01*
X148472780Y-119771421D02*
X148472780Y-118771421D01*
X148377542Y-118914278D01*
X148282304Y-119009516D01*
X148187066Y-119057135D01*
X147218163Y-89965803D02*
X147170544Y-90013422D01*
X147027687Y-90061041D01*
X146932449Y-90061041D01*
X146789591Y-90013422D01*
X146694353Y-89918184D01*
X146646734Y-89822946D01*
X146599115Y-89632470D01*
X146599115Y-89489612D01*
X146646734Y-89299136D01*
X146694353Y-89203898D01*
X146789591Y-89108660D01*
X146932449Y-89061041D01*
X147027687Y-89061041D01*
X147170544Y-89108660D01*
X147218163Y-89156279D01*
X147599115Y-89156279D02*
X147646734Y-89108660D01*
X147741972Y-89061041D01*
X147980068Y-89061041D01*
X148075306Y-89108660D01*
X148122925Y-89156279D01*
X148170544Y-89251517D01*
X148170544Y-89346755D01*
X148122925Y-89489612D01*
X147551496Y-90061041D01*
X148170544Y-90061041D01*
X148503877Y-89061041D02*
X149170544Y-89061041D01*
X148741972Y-90061041D01*
X161883363Y-98404917D02*
X161930982Y-98452536D01*
X161978601Y-98595393D01*
X161978601Y-98690631D01*
X161930982Y-98833489D01*
X161835744Y-98928727D01*
X161740506Y-98976346D01*
X161550030Y-99023965D01*
X161407172Y-99023965D01*
X161216696Y-98976346D01*
X161121458Y-98928727D01*
X161026220Y-98833489D01*
X160978601Y-98690631D01*
X160978601Y-98595393D01*
X161026220Y-98452536D01*
X161073839Y-98404917D01*
X161073839Y-98023965D02*
X161026220Y-97976346D01*
X160978601Y-97881108D01*
X160978601Y-97643012D01*
X161026220Y-97547774D01*
X161073839Y-97500155D01*
X161169077Y-97452536D01*
X161264315Y-97452536D01*
X161407172Y-97500155D01*
X161978601Y-98071584D01*
X161978601Y-97452536D01*
X160978601Y-96595393D02*
X160978601Y-96785870D01*
X161026220Y-96881108D01*
X161073839Y-96928727D01*
X161216696Y-97023965D01*
X161407172Y-97071584D01*
X161788125Y-97071584D01*
X161883363Y-97023965D01*
X161930982Y-96976346D01*
X161978601Y-96881108D01*
X161978601Y-96690631D01*
X161930982Y-96595393D01*
X161883363Y-96547774D01*
X161788125Y-96500155D01*
X161550030Y-96500155D01*
X161454791Y-96547774D01*
X161407172Y-96595393D01*
X161359553Y-96690631D01*
X161359553Y-96881108D01*
X161407172Y-96976346D01*
X161454791Y-97023965D01*
X161550030Y-97071584D01*
X166889703Y-98463337D02*
X166937322Y-98510956D01*
X166984941Y-98653813D01*
X166984941Y-98749051D01*
X166937322Y-98891909D01*
X166842084Y-98987147D01*
X166746846Y-99034766D01*
X166556370Y-99082385D01*
X166413512Y-99082385D01*
X166223036Y-99034766D01*
X166127798Y-98987147D01*
X166032560Y-98891909D01*
X165984941Y-98749051D01*
X165984941Y-98653813D01*
X166032560Y-98510956D01*
X166080179Y-98463337D01*
X166080179Y-98082385D02*
X166032560Y-98034766D01*
X165984941Y-97939528D01*
X165984941Y-97701432D01*
X166032560Y-97606194D01*
X166080179Y-97558575D01*
X166175417Y-97510956D01*
X166270655Y-97510956D01*
X166413512Y-97558575D01*
X166984941Y-98130004D01*
X166984941Y-97510956D01*
X165984941Y-96606194D02*
X165984941Y-97082385D01*
X166461131Y-97130004D01*
X166413512Y-97082385D01*
X166365893Y-96987147D01*
X166365893Y-96749051D01*
X166413512Y-96653813D01*
X166461131Y-96606194D01*
X166556370Y-96558575D01*
X166794465Y-96558575D01*
X166889703Y-96606194D01*
X166937322Y-96653813D01*
X166984941Y-96749051D01*
X166984941Y-96987147D01*
X166937322Y-97082385D01*
X166889703Y-97130004D01*
X159143463Y-85495403D02*
X159095844Y-85543022D01*
X158952987Y-85590641D01*
X158857749Y-85590641D01*
X158714891Y-85543022D01*
X158619653Y-85447784D01*
X158572034Y-85352546D01*
X158524415Y-85162070D01*
X158524415Y-85019212D01*
X158572034Y-84828736D01*
X158619653Y-84733498D01*
X158714891Y-84638260D01*
X158857749Y-84590641D01*
X158952987Y-84590641D01*
X159095844Y-84638260D01*
X159143463Y-84685879D01*
X159524415Y-84685879D02*
X159572034Y-84638260D01*
X159667272Y-84590641D01*
X159905368Y-84590641D01*
X160000606Y-84638260D01*
X160048225Y-84685879D01*
X160095844Y-84781117D01*
X160095844Y-84876355D01*
X160048225Y-85019212D01*
X159476796Y-85590641D01*
X160095844Y-85590641D01*
X160952987Y-84923974D02*
X160952987Y-85590641D01*
X160714891Y-84543022D02*
X160476796Y-85257308D01*
X161095844Y-85257308D01*
X159013923Y-83872343D02*
X158966304Y-83919962D01*
X158823447Y-83967581D01*
X158728209Y-83967581D01*
X158585351Y-83919962D01*
X158490113Y-83824724D01*
X158442494Y-83729486D01*
X158394875Y-83539010D01*
X158394875Y-83396152D01*
X158442494Y-83205676D01*
X158490113Y-83110438D01*
X158585351Y-83015200D01*
X158728209Y-82967581D01*
X158823447Y-82967581D01*
X158966304Y-83015200D01*
X159013923Y-83062819D01*
X159394875Y-83062819D02*
X159442494Y-83015200D01*
X159537732Y-82967581D01*
X159775828Y-82967581D01*
X159871066Y-83015200D01*
X159918685Y-83062819D01*
X159966304Y-83158057D01*
X159966304Y-83253295D01*
X159918685Y-83396152D01*
X159347256Y-83967581D01*
X159966304Y-83967581D01*
X160299637Y-82967581D02*
X160918685Y-82967581D01*
X160585351Y-83348533D01*
X160728209Y-83348533D01*
X160823447Y-83396152D01*
X160871066Y-83443771D01*
X160918685Y-83539010D01*
X160918685Y-83777105D01*
X160871066Y-83872343D01*
X160823447Y-83919962D01*
X160728209Y-83967581D01*
X160442494Y-83967581D01*
X160347256Y-83919962D01*
X160299637Y-83872343D01*
X158174963Y-127330437D02*
X158222582Y-127378056D01*
X158270201Y-127520913D01*
X158270201Y-127616151D01*
X158222582Y-127759009D01*
X158127344Y-127854247D01*
X158032106Y-127901866D01*
X157841630Y-127949485D01*
X157698772Y-127949485D01*
X157508296Y-127901866D01*
X157413058Y-127854247D01*
X157317820Y-127759009D01*
X157270201Y-127616151D01*
X157270201Y-127520913D01*
X157317820Y-127378056D01*
X157365439Y-127330437D01*
X157365439Y-126949485D02*
X157317820Y-126901866D01*
X157270201Y-126806628D01*
X157270201Y-126568532D01*
X157317820Y-126473294D01*
X157365439Y-126425675D01*
X157460677Y-126378056D01*
X157555915Y-126378056D01*
X157698772Y-126425675D01*
X158270201Y-126997104D01*
X158270201Y-126378056D01*
X157365439Y-125997104D02*
X157317820Y-125949485D01*
X157270201Y-125854247D01*
X157270201Y-125616151D01*
X157317820Y-125520913D01*
X157365439Y-125473294D01*
X157460677Y-125425675D01*
X157555915Y-125425675D01*
X157698772Y-125473294D01*
X158270201Y-126044723D01*
X158270201Y-125425675D01*
X160487123Y-118385863D02*
X160439504Y-118433482D01*
X160296647Y-118481101D01*
X160201409Y-118481101D01*
X160058551Y-118433482D01*
X159963313Y-118338244D01*
X159915694Y-118243006D01*
X159868075Y-118052530D01*
X159868075Y-117909672D01*
X159915694Y-117719196D01*
X159963313Y-117623958D01*
X160058551Y-117528720D01*
X160201409Y-117481101D01*
X160296647Y-117481101D01*
X160439504Y-117528720D01*
X160487123Y-117576339D01*
X160868075Y-117576339D02*
X160915694Y-117528720D01*
X161010932Y-117481101D01*
X161249028Y-117481101D01*
X161344266Y-117528720D01*
X161391885Y-117576339D01*
X161439504Y-117671577D01*
X161439504Y-117766815D01*
X161391885Y-117909672D01*
X160820456Y-118481101D01*
X161439504Y-118481101D01*
X162391885Y-118481101D02*
X161820456Y-118481101D01*
X162106170Y-118481101D02*
X162106170Y-117481101D01*
X162010932Y-117623958D01*
X161915694Y-117719196D01*
X161820456Y-117766815D01*
X151886683Y-116104943D02*
X151839064Y-116152562D01*
X151696207Y-116200181D01*
X151600969Y-116200181D01*
X151458111Y-116152562D01*
X151362873Y-116057324D01*
X151315254Y-115962086D01*
X151267635Y-115771610D01*
X151267635Y-115628752D01*
X151315254Y-115438276D01*
X151362873Y-115343038D01*
X151458111Y-115247800D01*
X151600969Y-115200181D01*
X151696207Y-115200181D01*
X151839064Y-115247800D01*
X151886683Y-115295419D01*
X152267635Y-115295419D02*
X152315254Y-115247800D01*
X152410492Y-115200181D01*
X152648588Y-115200181D01*
X152743826Y-115247800D01*
X152791445Y-115295419D01*
X152839064Y-115390657D01*
X152839064Y-115485895D01*
X152791445Y-115628752D01*
X152220016Y-116200181D01*
X152839064Y-116200181D01*
X153458111Y-115200181D02*
X153553350Y-115200181D01*
X153648588Y-115247800D01*
X153696207Y-115295419D01*
X153743826Y-115390657D01*
X153791445Y-115581133D01*
X153791445Y-115819229D01*
X153743826Y-116009705D01*
X153696207Y-116104943D01*
X153648588Y-116152562D01*
X153553350Y-116200181D01*
X153458111Y-116200181D01*
X153362873Y-116152562D01*
X153315254Y-116104943D01*
X153267635Y-116009705D01*
X153220016Y-115819229D01*
X153220016Y-115581133D01*
X153267635Y-115390657D01*
X153315254Y-115295419D01*
X153362873Y-115247800D01*
X153458111Y-115200181D01*
X151896843Y-117476543D02*
X151849224Y-117524162D01*
X151706367Y-117571781D01*
X151611129Y-117571781D01*
X151468271Y-117524162D01*
X151373033Y-117428924D01*
X151325414Y-117333686D01*
X151277795Y-117143210D01*
X151277795Y-117000352D01*
X151325414Y-116809876D01*
X151373033Y-116714638D01*
X151468271Y-116619400D01*
X151611129Y-116571781D01*
X151706367Y-116571781D01*
X151849224Y-116619400D01*
X151896843Y-116667019D01*
X152849224Y-117571781D02*
X152277795Y-117571781D01*
X152563509Y-117571781D02*
X152563509Y-116571781D01*
X152468271Y-116714638D01*
X152373033Y-116809876D01*
X152277795Y-116857495D01*
X153325414Y-117571781D02*
X153515890Y-117571781D01*
X153611129Y-117524162D01*
X153658748Y-117476543D01*
X153753986Y-117333686D01*
X153801605Y-117143210D01*
X153801605Y-116762257D01*
X153753986Y-116667019D01*
X153706367Y-116619400D01*
X153611129Y-116571781D01*
X153420652Y-116571781D01*
X153325414Y-116619400D01*
X153277795Y-116667019D01*
X153230176Y-116762257D01*
X153230176Y-117000352D01*
X153277795Y-117095590D01*
X153325414Y-117143210D01*
X153420652Y-117190829D01*
X153611129Y-117190829D01*
X153706367Y-117143210D01*
X153753986Y-117095590D01*
X153801605Y-117000352D01*
X170443923Y-102740603D02*
X170396304Y-102788222D01*
X170253447Y-102835841D01*
X170158209Y-102835841D01*
X170015351Y-102788222D01*
X169920113Y-102692984D01*
X169872494Y-102597746D01*
X169824875Y-102407270D01*
X169824875Y-102264412D01*
X169872494Y-102073936D01*
X169920113Y-101978698D01*
X170015351Y-101883460D01*
X170158209Y-101835841D01*
X170253447Y-101835841D01*
X170396304Y-101883460D01*
X170443923Y-101931079D01*
X171396304Y-102835841D02*
X170824875Y-102835841D01*
X171110589Y-102835841D02*
X171110589Y-101835841D01*
X171015351Y-101978698D01*
X170920113Y-102073936D01*
X170824875Y-102121555D01*
X171967732Y-102264412D02*
X171872494Y-102216793D01*
X171824875Y-102169174D01*
X171777256Y-102073936D01*
X171777256Y-102026317D01*
X171824875Y-101931079D01*
X171872494Y-101883460D01*
X171967732Y-101835841D01*
X172158209Y-101835841D01*
X172253447Y-101883460D01*
X172301066Y-101931079D01*
X172348685Y-102026317D01*
X172348685Y-102073936D01*
X172301066Y-102169174D01*
X172253447Y-102216793D01*
X172158209Y-102264412D01*
X171967732Y-102264412D01*
X171872494Y-102312031D01*
X171824875Y-102359650D01*
X171777256Y-102454889D01*
X171777256Y-102645365D01*
X171824875Y-102740603D01*
X171872494Y-102788222D01*
X171967732Y-102835841D01*
X172158209Y-102835841D01*
X172253447Y-102788222D01*
X172301066Y-102740603D01*
X172348685Y-102645365D01*
X172348685Y-102454889D01*
X172301066Y-102359650D01*
X172253447Y-102312031D01*
X172158209Y-102264412D01*
X130526823Y-85892483D02*
X130479204Y-85940102D01*
X130336347Y-85987721D01*
X130241109Y-85987721D01*
X130098251Y-85940102D01*
X130003013Y-85844864D01*
X129955394Y-85749626D01*
X129907775Y-85559150D01*
X129907775Y-85416292D01*
X129955394Y-85225816D01*
X130003013Y-85130578D01*
X130098251Y-85035340D01*
X130241109Y-84987721D01*
X130336347Y-84987721D01*
X130479204Y-85035340D01*
X130526823Y-85082959D01*
X131479204Y-85987721D02*
X130907775Y-85987721D01*
X131193489Y-85987721D02*
X131193489Y-84987721D01*
X131098251Y-85130578D01*
X131003013Y-85225816D01*
X130907775Y-85273435D01*
X131812537Y-84987721D02*
X132479204Y-84987721D01*
X132050632Y-85987721D01*
X130577143Y-79337143D02*
X130529524Y-79384762D01*
X130386667Y-79432381D01*
X130291429Y-79432381D01*
X130148571Y-79384762D01*
X130053333Y-79289524D01*
X130005714Y-79194286D01*
X129958095Y-79003810D01*
X129958095Y-78860952D01*
X130005714Y-78670476D01*
X130053333Y-78575238D01*
X130148571Y-78480000D01*
X130291429Y-78432381D01*
X130386667Y-78432381D01*
X130529524Y-78480000D01*
X130577143Y-78527619D01*
X131529524Y-79432381D02*
X130958095Y-79432381D01*
X131243809Y-79432381D02*
X131243809Y-78432381D01*
X131148571Y-78575238D01*
X131053333Y-78670476D01*
X130958095Y-78718095D01*
X132386667Y-78432381D02*
X132196190Y-78432381D01*
X132100952Y-78480000D01*
X132053333Y-78527619D01*
X131958095Y-78670476D01*
X131910476Y-78860952D01*
X131910476Y-79241905D01*
X131958095Y-79337143D01*
X132005714Y-79384762D01*
X132100952Y-79432381D01*
X132291429Y-79432381D01*
X132386667Y-79384762D01*
X132434286Y-79337143D01*
X132481905Y-79241905D01*
X132481905Y-79003810D01*
X132434286Y-78908571D01*
X132386667Y-78860952D01*
X132291429Y-78813333D01*
X132100952Y-78813333D01*
X132005714Y-78860952D01*
X131958095Y-78908571D01*
X131910476Y-79003810D01*
X111178103Y-125551203D02*
X111130484Y-125598822D01*
X110987627Y-125646441D01*
X110892389Y-125646441D01*
X110749531Y-125598822D01*
X110654293Y-125503584D01*
X110606674Y-125408346D01*
X110559055Y-125217870D01*
X110559055Y-125075012D01*
X110606674Y-124884536D01*
X110654293Y-124789298D01*
X110749531Y-124694060D01*
X110892389Y-124646441D01*
X110987627Y-124646441D01*
X111130484Y-124694060D01*
X111178103Y-124741679D01*
X112130484Y-125646441D02*
X111559055Y-125646441D01*
X111844769Y-125646441D02*
X111844769Y-124646441D01*
X111749531Y-124789298D01*
X111654293Y-124884536D01*
X111559055Y-124932155D01*
X113035246Y-124646441D02*
X112559055Y-124646441D01*
X112511436Y-125122631D01*
X112559055Y-125075012D01*
X112654293Y-125027393D01*
X112892389Y-125027393D01*
X112987627Y-125075012D01*
X113035246Y-125122631D01*
X113082865Y-125217870D01*
X113082865Y-125455965D01*
X113035246Y-125551203D01*
X112987627Y-125598822D01*
X112892389Y-125646441D01*
X112654293Y-125646441D01*
X112559055Y-125598822D01*
X112511436Y-125551203D01*
X108112323Y-125754403D02*
X108064704Y-125802022D01*
X107921847Y-125849641D01*
X107826609Y-125849641D01*
X107683751Y-125802022D01*
X107588513Y-125706784D01*
X107540894Y-125611546D01*
X107493275Y-125421070D01*
X107493275Y-125278212D01*
X107540894Y-125087736D01*
X107588513Y-124992498D01*
X107683751Y-124897260D01*
X107826609Y-124849641D01*
X107921847Y-124849641D01*
X108064704Y-124897260D01*
X108112323Y-124944879D01*
X109064704Y-125849641D02*
X108493275Y-125849641D01*
X108778989Y-125849641D02*
X108778989Y-124849641D01*
X108683751Y-124992498D01*
X108588513Y-125087736D01*
X108493275Y-125135355D01*
X109921847Y-125182974D02*
X109921847Y-125849641D01*
X109683751Y-124802022D02*
X109445656Y-125516308D01*
X110064704Y-125516308D01*
X161296623Y-147030677D02*
X161344242Y-147078296D01*
X161391861Y-147221153D01*
X161391861Y-147316391D01*
X161344242Y-147459249D01*
X161249004Y-147554487D01*
X161153766Y-147602106D01*
X160963290Y-147649725D01*
X160820432Y-147649725D01*
X160629956Y-147602106D01*
X160534718Y-147554487D01*
X160439480Y-147459249D01*
X160391861Y-147316391D01*
X160391861Y-147221153D01*
X160439480Y-147078296D01*
X160487099Y-147030677D01*
X161391861Y-146078296D02*
X161391861Y-146649725D01*
X161391861Y-146364011D02*
X160391861Y-146364011D01*
X160534718Y-146459249D01*
X160629956Y-146554487D01*
X160677575Y-146649725D01*
X160391861Y-145744963D02*
X160391861Y-145125915D01*
X160772813Y-145459249D01*
X160772813Y-145316391D01*
X160820432Y-145221153D01*
X160868051Y-145173534D01*
X160963290Y-145125915D01*
X161201385Y-145125915D01*
X161296623Y-145173534D01*
X161344242Y-145221153D01*
X161391861Y-145316391D01*
X161391861Y-145602106D01*
X161344242Y-145697344D01*
X161296623Y-145744963D01*
X105130363Y-125591843D02*
X105082744Y-125639462D01*
X104939887Y-125687081D01*
X104844649Y-125687081D01*
X104701791Y-125639462D01*
X104606553Y-125544224D01*
X104558934Y-125448986D01*
X104511315Y-125258510D01*
X104511315Y-125115652D01*
X104558934Y-124925176D01*
X104606553Y-124829938D01*
X104701791Y-124734700D01*
X104844649Y-124687081D01*
X104939887Y-124687081D01*
X105082744Y-124734700D01*
X105130363Y-124782319D01*
X106082744Y-125687081D02*
X105511315Y-125687081D01*
X105797029Y-125687081D02*
X105797029Y-124687081D01*
X105701791Y-124829938D01*
X105606553Y-124925176D01*
X105511315Y-124972795D01*
X106463696Y-124782319D02*
X106511315Y-124734700D01*
X106606553Y-124687081D01*
X106844649Y-124687081D01*
X106939887Y-124734700D01*
X106987506Y-124782319D01*
X107035125Y-124877557D01*
X107035125Y-124972795D01*
X106987506Y-125115652D01*
X106416077Y-125687081D01*
X107035125Y-125687081D01*
X154286223Y-147035757D02*
X154333842Y-147083376D01*
X154381461Y-147226233D01*
X154381461Y-147321471D01*
X154333842Y-147464329D01*
X154238604Y-147559567D01*
X154143366Y-147607186D01*
X153952890Y-147654805D01*
X153810032Y-147654805D01*
X153619556Y-147607186D01*
X153524318Y-147559567D01*
X153429080Y-147464329D01*
X153381461Y-147321471D01*
X153381461Y-147226233D01*
X153429080Y-147083376D01*
X153476699Y-147035757D01*
X154381461Y-146083376D02*
X154381461Y-146654805D01*
X154381461Y-146369091D02*
X153381461Y-146369091D01*
X153524318Y-146464329D01*
X153619556Y-146559567D01*
X153667175Y-146654805D01*
X154381461Y-145130995D02*
X154381461Y-145702424D01*
X154381461Y-145416710D02*
X153381461Y-145416710D01*
X153524318Y-145511948D01*
X153619556Y-145607186D01*
X153667175Y-145702424D01*
X131058683Y-119290103D02*
X131011064Y-119337722D01*
X130868207Y-119385341D01*
X130772969Y-119385341D01*
X130630111Y-119337722D01*
X130534873Y-119242484D01*
X130487254Y-119147246D01*
X130439635Y-118956770D01*
X130439635Y-118813912D01*
X130487254Y-118623436D01*
X130534873Y-118528198D01*
X130630111Y-118432960D01*
X130772969Y-118385341D01*
X130868207Y-118385341D01*
X131011064Y-118432960D01*
X131058683Y-118480579D01*
X132011064Y-119385341D02*
X131439635Y-119385341D01*
X131725349Y-119385341D02*
X131725349Y-118385341D01*
X131630111Y-118528198D01*
X131534873Y-118623436D01*
X131439635Y-118671055D01*
X132630111Y-118385341D02*
X132725350Y-118385341D01*
X132820588Y-118432960D01*
X132868207Y-118480579D01*
X132915826Y-118575817D01*
X132963445Y-118766293D01*
X132963445Y-119004389D01*
X132915826Y-119194865D01*
X132868207Y-119290103D01*
X132820588Y-119337722D01*
X132725350Y-119385341D01*
X132630111Y-119385341D01*
X132534873Y-119337722D01*
X132487254Y-119290103D01*
X132439635Y-119194865D01*
X132392016Y-119004389D01*
X132392016Y-118766293D01*
X132439635Y-118575817D01*
X132487254Y-118480579D01*
X132534873Y-118432960D01*
X132630111Y-118385341D01*
X122982694Y-119414563D02*
X122935075Y-119462182D01*
X122792218Y-119509801D01*
X122696980Y-119509801D01*
X122554122Y-119462182D01*
X122458884Y-119366944D01*
X122411265Y-119271706D01*
X122363646Y-119081230D01*
X122363646Y-118938372D01*
X122411265Y-118747896D01*
X122458884Y-118652658D01*
X122554122Y-118557420D01*
X122696980Y-118509801D01*
X122792218Y-118509801D01*
X122935075Y-118557420D01*
X122982694Y-118605039D01*
X123458884Y-119509801D02*
X123649360Y-119509801D01*
X123744599Y-119462182D01*
X123792218Y-119414563D01*
X123887456Y-119271706D01*
X123935075Y-119081230D01*
X123935075Y-118700277D01*
X123887456Y-118605039D01*
X123839837Y-118557420D01*
X123744599Y-118509801D01*
X123554122Y-118509801D01*
X123458884Y-118557420D01*
X123411265Y-118605039D01*
X123363646Y-118700277D01*
X123363646Y-118938372D01*
X123411265Y-119033610D01*
X123458884Y-119081230D01*
X123554122Y-119128849D01*
X123744599Y-119128849D01*
X123839837Y-119081230D01*
X123887456Y-119033610D01*
X123935075Y-118938372D01*
X131217374Y-117976923D02*
X131169755Y-118024542D01*
X131026898Y-118072161D01*
X130931660Y-118072161D01*
X130788802Y-118024542D01*
X130693564Y-117929304D01*
X130645945Y-117834066D01*
X130598326Y-117643590D01*
X130598326Y-117500732D01*
X130645945Y-117310256D01*
X130693564Y-117215018D01*
X130788802Y-117119780D01*
X130931660Y-117072161D01*
X131026898Y-117072161D01*
X131169755Y-117119780D01*
X131217374Y-117167399D01*
X131788802Y-117500732D02*
X131693564Y-117453113D01*
X131645945Y-117405494D01*
X131598326Y-117310256D01*
X131598326Y-117262637D01*
X131645945Y-117167399D01*
X131693564Y-117119780D01*
X131788802Y-117072161D01*
X131979279Y-117072161D01*
X132074517Y-117119780D01*
X132122136Y-117167399D01*
X132169755Y-117262637D01*
X132169755Y-117310256D01*
X132122136Y-117405494D01*
X132074517Y-117453113D01*
X131979279Y-117500732D01*
X131788802Y-117500732D01*
X131693564Y-117548351D01*
X131645945Y-117595970D01*
X131598326Y-117691209D01*
X131598326Y-117881685D01*
X131645945Y-117976923D01*
X131693564Y-118024542D01*
X131788802Y-118072161D01*
X131979279Y-118072161D01*
X132074517Y-118024542D01*
X132122136Y-117976923D01*
X132169755Y-117881685D01*
X132169755Y-117691209D01*
X132122136Y-117595970D01*
X132074517Y-117548351D01*
X131979279Y-117500732D01*
X114826754Y-109854003D02*
X114779135Y-109901622D01*
X114636278Y-109949241D01*
X114541040Y-109949241D01*
X114398182Y-109901622D01*
X114302944Y-109806384D01*
X114255325Y-109711146D01*
X114207706Y-109520670D01*
X114207706Y-109377812D01*
X114255325Y-109187336D01*
X114302944Y-109092098D01*
X114398182Y-108996860D01*
X114541040Y-108949241D01*
X114636278Y-108949241D01*
X114779135Y-108996860D01*
X114826754Y-109044479D01*
X115160087Y-108949241D02*
X115826754Y-108949241D01*
X115398182Y-109949241D01*
X110628134Y-118817663D02*
X110580515Y-118865282D01*
X110437658Y-118912901D01*
X110342420Y-118912901D01*
X110199562Y-118865282D01*
X110104324Y-118770044D01*
X110056705Y-118674806D01*
X110009086Y-118484330D01*
X110009086Y-118341472D01*
X110056705Y-118150996D01*
X110104324Y-118055758D01*
X110199562Y-117960520D01*
X110342420Y-117912901D01*
X110437658Y-117912901D01*
X110580515Y-117960520D01*
X110628134Y-118008139D01*
X111485277Y-117912901D02*
X111294800Y-117912901D01*
X111199562Y-117960520D01*
X111151943Y-118008139D01*
X111056705Y-118150996D01*
X111009086Y-118341472D01*
X111009086Y-118722425D01*
X111056705Y-118817663D01*
X111104324Y-118865282D01*
X111199562Y-118912901D01*
X111390039Y-118912901D01*
X111485277Y-118865282D01*
X111532896Y-118817663D01*
X111580515Y-118722425D01*
X111580515Y-118484330D01*
X111532896Y-118389091D01*
X111485277Y-118341472D01*
X111390039Y-118293853D01*
X111199562Y-118293853D01*
X111104324Y-118341472D01*
X111056705Y-118389091D01*
X111009086Y-118484330D01*
X116846054Y-110951283D02*
X116798435Y-110998902D01*
X116655578Y-111046521D01*
X116560340Y-111046521D01*
X116417482Y-110998902D01*
X116322244Y-110903664D01*
X116274625Y-110808426D01*
X116227006Y-110617950D01*
X116227006Y-110475092D01*
X116274625Y-110284616D01*
X116322244Y-110189378D01*
X116417482Y-110094140D01*
X116560340Y-110046521D01*
X116655578Y-110046521D01*
X116798435Y-110094140D01*
X116846054Y-110141759D01*
X117750816Y-110046521D02*
X117274625Y-110046521D01*
X117227006Y-110522711D01*
X117274625Y-110475092D01*
X117369863Y-110427473D01*
X117607959Y-110427473D01*
X117703197Y-110475092D01*
X117750816Y-110522711D01*
X117798435Y-110617950D01*
X117798435Y-110856045D01*
X117750816Y-110951283D01*
X117703197Y-110998902D01*
X117607959Y-111046521D01*
X117369863Y-111046521D01*
X117274625Y-110998902D01*
X117227006Y-110951283D01*
X114841994Y-108484943D02*
X114794375Y-108532562D01*
X114651518Y-108580181D01*
X114556280Y-108580181D01*
X114413422Y-108532562D01*
X114318184Y-108437324D01*
X114270565Y-108342086D01*
X114222946Y-108151610D01*
X114222946Y-108008752D01*
X114270565Y-107818276D01*
X114318184Y-107723038D01*
X114413422Y-107627800D01*
X114556280Y-107580181D01*
X114651518Y-107580181D01*
X114794375Y-107627800D01*
X114841994Y-107675419D01*
X115699137Y-107913514D02*
X115699137Y-108580181D01*
X115461041Y-107532562D02*
X115222946Y-108246848D01*
X115841994Y-108246848D01*
X110628134Y-120189263D02*
X110580515Y-120236882D01*
X110437658Y-120284501D01*
X110342420Y-120284501D01*
X110199562Y-120236882D01*
X110104324Y-120141644D01*
X110056705Y-120046406D01*
X110009086Y-119855930D01*
X110009086Y-119713072D01*
X110056705Y-119522596D01*
X110104324Y-119427358D01*
X110199562Y-119332120D01*
X110342420Y-119284501D01*
X110437658Y-119284501D01*
X110580515Y-119332120D01*
X110628134Y-119379739D01*
X110961467Y-119284501D02*
X111580515Y-119284501D01*
X111247181Y-119665453D01*
X111390039Y-119665453D01*
X111485277Y-119713072D01*
X111532896Y-119760691D01*
X111580515Y-119855930D01*
X111580515Y-120094025D01*
X111532896Y-120189263D01*
X111485277Y-120236882D01*
X111390039Y-120284501D01*
X111104324Y-120284501D01*
X111009086Y-120236882D01*
X110961467Y-120189263D01*
X168675323Y-152991546D02*
X168722942Y-153039165D01*
X168770561Y-153182022D01*
X168770561Y-153277260D01*
X168722942Y-153420118D01*
X168627704Y-153515356D01*
X168532466Y-153562975D01*
X168341990Y-153610594D01*
X168199132Y-153610594D01*
X168008656Y-153562975D01*
X167913418Y-153515356D01*
X167818180Y-153420118D01*
X167770561Y-153277260D01*
X167770561Y-153182022D01*
X167818180Y-153039165D01*
X167865799Y-152991546D01*
X167865799Y-152610594D02*
X167818180Y-152562975D01*
X167770561Y-152467737D01*
X167770561Y-152229641D01*
X167818180Y-152134403D01*
X167865799Y-152086784D01*
X167961037Y-152039165D01*
X168056275Y-152039165D01*
X168199132Y-152086784D01*
X168770561Y-152658213D01*
X168770561Y-152039165D01*
X149292583Y-155354446D02*
X149340202Y-155402065D01*
X149387821Y-155544922D01*
X149387821Y-155640160D01*
X149340202Y-155783018D01*
X149244964Y-155878256D01*
X149149726Y-155925875D01*
X148959250Y-155973494D01*
X148816392Y-155973494D01*
X148625916Y-155925875D01*
X148530678Y-155878256D01*
X148435440Y-155783018D01*
X148387821Y-155640160D01*
X148387821Y-155544922D01*
X148435440Y-155402065D01*
X148483059Y-155354446D01*
X149387821Y-154402065D02*
X149387821Y-154973494D01*
X149387821Y-154687780D02*
X148387821Y-154687780D01*
X148530678Y-154783018D01*
X148625916Y-154878256D01*
X148673535Y-154973494D01*
X157844906Y-105841491D02*
X157987763Y-105889110D01*
X158035382Y-105936730D01*
X158083001Y-106031968D01*
X158083001Y-106174825D01*
X158035382Y-106270063D01*
X157987763Y-106317682D01*
X157892525Y-106365301D01*
X157511572Y-106365301D01*
X157511572Y-105365301D01*
X157844906Y-105365301D01*
X157940144Y-105412920D01*
X157987763Y-105460539D01*
X158035382Y-105555777D01*
X158035382Y-105651015D01*
X157987763Y-105746253D01*
X157940144Y-105793872D01*
X157844906Y-105841491D01*
X157511572Y-105841491D01*
X158368715Y-105365301D02*
X158940144Y-105365301D01*
X158654429Y-106365301D02*
X158654429Y-105365301D01*
X159797287Y-106365301D02*
X159225858Y-106365301D01*
X159511572Y-106365301D02*
X159511572Y-105365301D01*
X159416334Y-105508158D01*
X159321096Y-105603396D01*
X159225858Y-105651015D01*
X139219061Y-99448095D02*
X138219061Y-99448095D01*
X138219061Y-99067142D01*
X138266680Y-98971904D01*
X138314299Y-98924285D01*
X138409537Y-98876666D01*
X138552394Y-98876666D01*
X138647632Y-98924285D01*
X138695251Y-98971904D01*
X138742870Y-99067142D01*
X138742870Y-99448095D01*
X138552394Y-98019523D02*
X139219061Y-98019523D01*
X138171442Y-98257619D02*
X138885728Y-98495714D01*
X138885728Y-97876666D01*
X108961905Y-76452381D02*
X108961905Y-75452381D01*
X109342858Y-75452381D01*
X109438096Y-75500000D01*
X109485715Y-75547619D01*
X109533334Y-75642857D01*
X109533334Y-75785714D01*
X109485715Y-75880952D01*
X109438096Y-75928571D01*
X109342858Y-75976190D01*
X108961905Y-75976190D01*
X109914286Y-75547619D02*
X109961905Y-75500000D01*
X110057143Y-75452381D01*
X110295239Y-75452381D01*
X110390477Y-75500000D01*
X110438096Y-75547619D01*
X110485715Y-75642857D01*
X110485715Y-75738095D01*
X110438096Y-75880952D01*
X109866667Y-76452381D01*
X110485715Y-76452381D01*
M02*
