M48
INCH,TZ
T1C0.013
T2C0.026
T3C0.031
T4C0.047
T5C0.067
%
G90
G05
T1
X41236Y-60547
X41240Y-27480
X41244Y-29610
X41244Y-34197
X41244Y-38197
X41244Y-43209
X41244Y-56594
X41244Y-65382
X41252Y-47913
X41252Y-52004
X42253Y-48937
X42768Y-27472
X43311Y-44106
X43311Y-45531
X43617Y-48496
X43725Y-46604
X44126Y-59367
X44139Y-54842
X44553Y-48922
X44618Y-48193
X45138Y-43106
X45203Y-53864
X45508Y-48197
X45508Y-65390
X45553Y-46105
X45675Y-44161
X45913Y-51308
X46123Y-49710
X46519Y-58235
X46523Y-59002
X46529Y-58574
X46634Y-42961
X46677Y-51740
X46732Y-51315
X47402Y-53097
X47445Y-44161
X47536Y-54630
X47539Y-59007
X47737Y-51300
X47869Y-58567
X47951Y-49721
X48161Y-58235
X48382Y-65394
X48629Y-37488
X48876Y-53516
X48969Y-37488
X49543Y-51323
X49804Y-49726
X49909Y-42947
X49926Y-45267
X49928Y-59446
X51311Y-51331
X51564Y-49782
X51700Y-45261
X51773Y-57220
X51946Y-65394
X51971Y-40885
X52107Y-58115
X52341Y-59368
X52753Y-60253
X52799Y-27335
X52968Y-40635
X53067Y-51351
X53286Y-41166
X53806Y-49609
X53867Y-39031
X53931Y-61726
X53934Y-47476
X54109Y-54674
X54110Y-31728
X54337Y-47476
X54395Y-64698
X54559Y-53675
X54588Y-56584
X54716Y-35387
X54740Y-47487
X54793Y-49733
X54795Y-51327
X54838Y-45303
X55110Y-34993
X55132Y-47476
X55157Y-54287
X55186Y-45322
X55224Y-59832
X55342Y-65394
X55535Y-47487
X55553Y-45332
X55628Y-50012
X55791Y-27335
X55916Y-47487
X55941Y-45332
X55942Y-54964
X55947Y-50204
X56260Y-49992
X56342Y-47498
X56366Y-44228
X56378Y-45432
X56579Y-50220
X56776Y-34602
X56790Y-47599
X56886Y-54777
X56930Y-45665
X57055Y-50002
X57323Y-54722
X57374Y-50215
X57422Y-34602
X57519Y-53724
X57593Y-54965
X57687Y-49992
X57801Y-31433
X57893Y-57141
X57897Y-54737
X58006Y-50235
X58246Y-45829
X58358Y-53724
X58368Y-54741
X58374Y-27346
X58486Y-50022
X58514Y-46266
X58598Y-37672
X58798Y-50237
X59113Y-50033
X59391Y-54826
X59429Y-50245
X59554Y-35191
X59574Y-61665
X59595Y-43076
X59596Y-32756
X59627Y-41204
X59627Y-41634
X59631Y-42093
X59644Y-56720
X59645Y-42481
X59727Y-53338
X59845Y-65342
X59860Y-45402
X59908Y-50066
X59981Y-40769
X60218Y-50233
X60228Y-43264
X60536Y-50081
X60537Y-31474
X60621Y-53673
X60855Y-50226
X60886Y-43463
X61256Y-27343
X61558Y-43662
X61614Y-57420
X61649Y-61377
X61751Y-42480
X62073Y-33353
X62110Y-51209
X62282Y-43861
X62475Y-57420
X62487Y-31407
X62514Y-56774
X62646Y-58341
X62734Y-65342
X62903Y-44058
X63406Y-50100
X63518Y-37662
X63607Y-35218
X63633Y-44254
X63720Y-50236
X63768Y-27350
X64037Y-50097
X64298Y-44450
X64353Y-50239
X64743Y-54556
X64869Y-50109
X64978Y-54854
X65059Y-43373
X65189Y-50233
X65284Y-42942
X65449Y-54549
X65500Y-50088
X65692Y-54862
X65733Y-36274
X65817Y-50230
X65829Y-61502
X65992Y-27350
X66108Y-65327
X66155Y-54564
X66334Y-50099
X66398Y-54878
X66652Y-50240
X66672Y-43807
X66692Y-45326
X66695Y-44961
X66963Y-50129
X67034Y-35581
X67043Y-44230
X67055Y-39829
X67113Y-44672
X67153Y-37505
X67278Y-50240
X67746Y-32580
X68694Y-65327
X68709Y-62831
X68737Y-32810
X68744Y-27350
X68748Y-31097
X68748Y-34936
T3
X68365Y-36512
X68365Y-37496
X68365Y-38480
T4
X56425Y-64943
X58575Y-64943
T5
X46756Y-29618
X48685Y-29618
T2
X56547Y-63841G85X56547Y-63683
G05
X58453Y-63841G85X58453Y-63683
G05
T0
M30
